<?xml version="1.0" standalone="no"?>
<!DOCTYPE svg PUBLIC "-//W3C//DTD SVG 1.1//EN" "http://www.w3.org/Graphics/SVG/1.1/DTD/svg11.dtd" >
<svg xmlns="http://www.w3.org/2000/svg">
<metadata></metadata>
<defs>
<font id="NovecentowideUltraLightRg" horiz-adv-x="1689" >
<font-face units-per-em="2048" ascent="1741" descent="-307" />
<missing-glyph horiz-adv-x="512" />
<glyph horiz-adv-x="0" />
<glyph horiz-adv-x="2048" />
<glyph unicode=" "  horiz-adv-x="512" />
<glyph unicode="&#x09;" horiz-adv-x="512" />
<glyph unicode="&#xa0;" horiz-adv-x="512" />
<glyph unicode="!" horiz-adv-x="477" d="M211 0v322h55v-322h-55zM211 485v949h55v-949h-55z" />
<glyph unicode="&#x22;" horiz-adv-x="675" d="M211 989v445h61v-445h-61zM403 989v445h62v-445h-62z" />
<glyph unicode="#" horiz-adv-x="1658" d="M63 430l23 43h276l269 524h-279l23 43h278l201 394h51l-200 -394h555l200 394h51l-200 -394h295l-21 -43h-297l-268 -524h297l-23 -43h-297l-219 -430h-51l219 430h-555l-219 -430h-51l219 430h-277zM414 473h555l268 524h-555z" />
<glyph unicode="$" horiz-adv-x="1196" d="M92 387l53 14q8 -161 128.5 -268.5t326.5 -107.5q200 0 323.5 98t123.5 250q0 52 -16.5 96t-36.5 75t-63.5 60.5t-71.5 45t-88 35.5t-84.5 27t-89.5 23q-34 9 -50 13q-156 42 -220 71q-210 94 -210 277q0 159 124.5 258.5t319.5 107.5v156h51v-156q184 -6 310.5 -107.5 t152.5 -269.5l-53 -14q-22 154 -139.5 246t-288.5 92q-186 0 -304 -83.5t-118 -229.5q0 -32 9 -61t22 -51.5t37.5 -43.5t45.5 -36.5t57 -31t60.5 -25.5t67 -22.5t67 -19t68.5 -17.5q176 -45 255 -80q241 -110 241 -337q0 -171 -135 -284t-355 -116v-155h-51v155 q-208 12 -333 130t-136 286z" />
<glyph unicode="%" horiz-adv-x="1841" d="M33 1030q0 176 102.5 298t270.5 122t270 -122t102 -298t-102 -297t-270 -121t-270.5 121t-102.5 297zM92 1030q0 -153 86 -258.5t228 -105.5t227.5 105.5t85.5 258.5q0 155 -85.5 261t-227.5 106t-228 -106.5t-86 -260.5zM418 0l946 1434h59l-946 -1434h-59zM1063 401 q0 176 102.5 298t270.5 122t270 -122t102 -298t-102 -296.5t-270 -120.5t-270.5 120.5t-102.5 296.5zM1122 401q0 -153 86 -258.5t228 -105.5t227.5 105.5t85.5 258.5q0 155 -85.5 261t-227.5 106t-228 -106.5t-86 -260.5z" />
<glyph unicode="&#x26;" horiz-adv-x="1452" d="M100 385q0 81 27.5 148t74 110t104.5 69t124 33v3q-52 8 -101 31.5t-92 62.5t-69.5 99.5t-26.5 133.5q0 50 12 100t44 103t80 93t127 65.5t178 25.5q187 0 319.5 -106.5t165.5 -306.5l-55 -17q-74 377 -432 377q-89 0 -159 -23.5t-111 -59t-67.5 -82t-36 -87t-9.5 -80.5 q0 -132 105 -218.5t296 -86.5h793v-53h-275v-197q0 -275 -121 -413t-395 -138q-221 0 -360.5 114.5t-139.5 299.5zM156 383q0 -160 125 -259t319 -99q134 0 225.5 34t142.5 101.5t72 154t21 205.5v199h-461q-95 0 -173.5 -19.5t-140 -59t-96 -105t-34.5 -152.5z" />
<glyph unicode="'" horiz-adv-x="483" d="M211 989v445h61v-445h-61z" />
<glyph unicode="(" horiz-adv-x="692" d="M102 723q0 430 116 682.5t366 343.5l26 -47q-110 -41 -192 -116t-141 -192.5t-89 -285t-30 -385.5q0 -428 114.5 -663.5t337.5 -317.5l-26 -45q-250 91 -366 343.5t-116 682.5z" />
<glyph unicode=")" horiz-adv-x="698" d="M90 -258q147 54 245.5 170t153 319t54.5 492q0 218 -30 385.5t-89 285t-141.5 192.5t-192.5 116l27 47q250 -91 365.5 -343.5t115.5 -682.5t-115.5 -682.5t-365.5 -343.5z" />
<glyph unicode="*" horiz-adv-x="1089" d="M211 1171l16 48l291 -95v310h53l-4 -310l295 95l17 -48l-295 -90l184 -256l-39 -28l-184 260l-183 -260l-38 28l182 256z" />
<glyph unicode="+" horiz-adv-x="1429" d="M236 702v54h450v434h59v-434h451v-54h-451v-444h-59v444h-450z" />
<glyph unicode="," horiz-adv-x="372" d="M102 -272q91 109 91 231l14 10h-14q-27 -3 -49.5 15.5t-22.5 50.5q0 30 20 46.5t49 16.5q28 0 47 -24t19 -60q0 -150 -113 -286h-41z" />
<glyph unicode="-" horiz-adv-x="1382" d="M211 702v54h960v-54h-960z" />
<glyph unicode="." horiz-adv-x="372" d="M123 35q0 27 18 45t45 18q28 0 46 -18t18 -45t-18.5 -45.5t-45.5 -18.5t-45 18.5t-18 45.5z" />
<glyph unicode="/" horiz-adv-x="907" d="M61 0l734 1434h51l-733 -1434h-52z" />
<glyph unicode="0" horiz-adv-x="1470" d="M100 717q0 147 42.5 280.5t120.5 237.5t200.5 165.5t271.5 61.5t271.5 -61.5t200.5 -165.5t120.5 -237.5t42.5 -280.5q0 -117 -26.5 -226.5t-79.5 -204t-128 -165t-178 -110.5t-223 -40t-223 40t-178 110.5t-128 165t-79.5 204t-26.5 226.5zM156 717q0 -109 23.5 -210 t71 -189t115.5 -153t163 -102.5t206 -37.5q112 0 207 37.5t163 102.5t116 153t71 189t23 210t-23 210t-71 189t-116 153t-163 102.5t-207 37.5q-111 0 -206 -37.5t-163 -102.5t-115.5 -153t-71 -189t-23.5 -210z" />
<glyph unicode="1" horiz-adv-x="765" d="M100 1026l414 408h41v-1434h-55v1151q0 44 2 96.5t3.5 80.5t0.5 28h-2q-1 0 -22 -23t-47.5 -51.5t-37.5 -38.5l-258 -254z" />
<glyph unicode="2" horiz-adv-x="1126" d="M82 1092q107 370 510 370q203 0 333 -123.5t130 -314.5q0 -44 -7.5 -86.5t-17.5 -78t-30 -72t-36.5 -63t-45.5 -59t-48 -52.5t-53 -49.5t-52 -44t-53.5 -42.5t-49.5 -39l-486 -387l2 -2h5q5 0 14 0.5t21.5 1t30 1t37 1t45 0.5h52.5h670v-53h-961v45q115 94 348 282.5 t348 282.5q93 76 152 182t59 230q0 171 -114.5 279t-292.5 108q-179 0 -295.5 -84.5t-159.5 -247.5z" />
<glyph unicode="3" horiz-adv-x="1200" d="M100 387l52 14q22 -170 152.5 -273t316.5 -103q107 0 190 31t133 85t75 121.5t25 145.5q0 157 -115.5 235t-318.5 78h-129v53h131q418 0 418 326q0 40 -12 80t-42 82t-75 74t-118 52.5t-165 20.5q-352 0 -432 -336l-51 14q37 176 163.5 275.5t317.5 99.5 q102 0 183.5 -22.5t134 -59t87.5 -85t49.5 -97.5t14.5 -100q0 -148 -96 -244t-237 -104v-2q93 -5 170 -43.5t127.5 -116t50.5 -180.5q0 -200 -136 -318.5t-346 -118.5q-201 0 -346 113.5t-172 302.5z" />
<glyph unicode="4" horiz-adv-x="1247" d="M100 426v35l820 973h36v-955h220v-53h-220v-426h-55v426h-801zM174 479l2 -2q1 0 115 1t162 1h448v578q0 36 0.5 71.5t1 63t1 53t1 44t1 31.5t0.5 20l1 8h-2q-1 0 -21 -27t-61.5 -80.5t-83.5 -103.5l-409 -486q-56 -66 -95.5 -109t-50.5 -53z" />
<glyph unicode="5" horiz-adv-x="1159" d="M82 387l53 14q31 -174 154 -275t313 -101q187 0 308.5 121.5t121.5 306.5t-121.5 306.5t-308.5 121.5q-91 0 -164 -21t-120 -57.5t-75.5 -72.5t-47.5 -79l-50 15l123 768h736v-54h-693l-55 -344q-12 -75 -26 -144.5t-22 -103.5l-7 -34l2 -2q40 66 148.5 124t248.5 58 q211 0 349 -135.5t138 -345.5q0 -208 -137.5 -345t-347.5 -137q-211 0 -347.5 113t-172.5 303z" />
<glyph unicode="6" horiz-adv-x="1200" d="M100 463q0 121 36.5 222t125.5 220l404 529h67l-506 -662l2 -2q135 172 385 172q223 0 368.5 -135t145.5 -344q0 -212 -145.5 -352t-368.5 -140q-224 0 -369 140.5t-145 351.5zM156 463q0 -197 126.5 -317.5t331.5 -120.5q203 0 329.5 121t129.5 317q3 191 -123 308.5 t-336 117.5q-205 0 -331.5 -117.5t-126.5 -308.5z" />
<glyph unicode="7" horiz-adv-x="1107" d="M76 1380v54h973v-43l-783 -1391h-59l704 1251q17 32 38 64.5t33 49.5l13 17l-2 2h-12q-12 -1 -31.5 -1.5t-42.5 -1t-50.5 -1t-51.5 -0.5h-729z" />
<glyph unicode="8" horiz-adv-x="1253" d="M100 387q0 162 114 263.5t271 111.5v2q-39 2 -90.5 22.5t-104.5 58.5t-89.5 103.5t-36.5 143.5q0 156 129 263t334 107t334 -107t129 -263q0 -63 -24.5 -118.5t-61.5 -92.5t-81.5 -64t-83.5 -39.5t-69 -13.5v-2q100 -6 186 -51t141.5 -130t55.5 -194q0 -188 -143.5 -301 t-382.5 -115q-239 2 -383 115t-144 301zM156 387q0 -167 125.5 -264t345.5 -98q220 1 345.5 98t125.5 264q0 161 -125.5 252.5t-345.5 91.5t-345.5 -91.5t-125.5 -252.5zM219 1092q0 -136 114 -221t294 -83t293.5 86.5t113.5 217.5q0 140 -113.5 228.5t-293.5 88.5 t-294 -88.5t-114 -228.5z" />
<glyph unicode="9" horiz-adv-x="1216" d="M72 967q0 147 68.5 260.5t187.5 174t268 60.5q112 0 206 -32t164.5 -93t110 -156t39.5 -214q0 -139 -68.5 -273t-238.5 -332l-311 -362h-66l561 664l-2 2q-74 -85 -175.5 -131t-217.5 -46q-238 0 -382 135.5t-144 342.5zM127 967q0 -109 39 -192.5t106.5 -133t148.5 -74 t173 -24.5q97 0 181 27.5t148 79.5t101 133.5t37 183.5q0 115 -38 202.5t-104.5 138.5t-148 76t-176.5 25q-92 0 -173 -26t-148 -77t-106.5 -138.5t-39.5 -200.5z" />
<glyph unicode=":" horiz-adv-x="372" d="M123 35q0 27 18 45t45 18q28 0 46 -18t18 -45t-18.5 -45.5t-45.5 -18.5t-45 18.5t-18 45.5zM123 696q0 28 18.5 46t44.5 18q27 0 45.5 -18.5t18.5 -45.5t-18.5 -45t-45.5 -18t-45 18t-18 45z" />
<glyph unicode=";" horiz-adv-x="399" d="M123 -281q90 108 90 232l14 10h-14q-27 -3 -49.5 15.5t-22.5 50.5q0 29 20.5 46t49.5 17q28 0 46.5 -23.5t18.5 -60.5q0 -152 -112 -287h-41zM139 696q0 27 18.5 45.5t45.5 18.5t45 -18.5t18 -45.5t-18 -45t-45 -18t-45.5 18.5t-18.5 44.5z" />
<glyph unicode="&#x3c;" horiz-adv-x="1429" d="M225 752l850 499h111l-852 -499l852 -500h-111z" />
<glyph unicode="=" horiz-adv-x="1429" d="M236 547v53h960v-53h-960zM236 860v53h960v-53h-960z" />
<glyph unicode="&#x3e;" horiz-adv-x="1429" d="M244 252l852 500l-852 499h110l850 -499l-850 -500h-110z" />
<glyph unicode="?" horiz-adv-x="1153" d="M100 1087q39 180 168.5 277.5t323.5 97.5q126 0 219.5 -34t144 -91.5t74 -122.5t23.5 -139q0 -73 -29.5 -137t-74.5 -110t-112 -88t-127 -68.5t-135 -53.5v-133h-59v168q263 98 371 194t108 230q0 47 -11 91t-39.5 88.5t-72.5 77t-116 53t-164 20.5q-360 0 -440 -334z M516 0v322h59v-322h-59z" />
<glyph unicode="@" horiz-adv-x="1617" d="M100 729q0 155 54 291t147.5 233t225 153t282.5 56t283 -56t225.5 -153t147 -233t53.5 -291q0 -178 -69.5 -288.5t-180.5 -110.5q-79 0 -130.5 50t-52.5 146l-2 2q-33 -89 -116 -143.5t-179 -54.5q-161 0 -266.5 109t-105.5 276q0 185 101.5 303.5t268.5 118.5 q57 0 108 -13.5t83.5 -33.5t56.5 -42.5t34.5 -40t10.5 -26.5h2v115h54v-582q0 -59 37.5 -97t91.5 -38q91 0 147.5 96.5t56.5 253.5q0 147 -50.5 274.5t-137.5 218t-209.5 142t-261.5 51.5q-140 0 -262.5 -51.5t-209.5 -142t-137 -218t-50 -274.5q0 -196 85 -358.5 t236.5 -257.5t337.5 -95q97 0 179 16.5t131 40.5t83 48t50.5 40.5t17.5 16.5l41 -26q-10 -12 -22.5 -24.5t-57 -44t-96.5 -54.5t-139.5 -41.5t-186.5 -18.5q-200 0 -363 101.5t-254.5 275t-91.5 381.5zM471 715q0 -148 87.5 -240t225.5 -92q136 0 216.5 92t80.5 246v135 q0 101 -85 164t-212 63q-145 0 -229 -101t-84 -267z" />
<glyph unicode="A" horiz-adv-x="1472" d="M61 0l654 1434h43l653 -1434h-59l-213 471h-805l-213 -471h-60zM356 522h760l-313 695q-12 28 -29.5 68t-26.5 61.5t-10 21.5h-2q-1 0 -10 -21.5t-25.5 -61t-29.5 -68.5z" />
<glyph unicode="B" horiz-adv-x="1306" d="M211 0v1434h483q182 0 292 -91.5t110 -244.5q0 -110 -86 -198.5t-189 -102.5v-2q55 -2 119 -28.5t123 -72t98 -119t39 -159.5q0 -190 -123.5 -303t-324.5 -113h-541zM266 53h490q167 0 278 96.5t111 258.5q0 99 -56 181t-149 127.5t-201 45.5h-473v-709zM266 815h420 q157 0 255.5 83.5t98.5 201.5q0 129 -96 204.5t-258 75.5h-420v-565z" />
<glyph unicode="C" horiz-adv-x="1566" d="M100 717q0 159 58.5 298t158.5 237t237 154t290 56q208 0 380.5 -100t270.5 -272l-55 -15q-88 156 -246 245t-350 89q-143 0 -269 -50t-218.5 -139.5t-146.5 -219.5t-54 -283q0 -200 92 -359t249 -246t347 -87q202 0 366.5 101.5t251.5 274.5l54 -16q-91 -192 -270 -303 t-402 -111q-153 0 -290 56.5t-237 154t-158.5 237t-58.5 298.5z" />
<glyph unicode="D" horiz-adv-x="1642" d="M211 0v1434h588q153 0 289 -53.5t236.5 -147.5t159 -230t58.5 -294q0 -205 -98.5 -368.5t-263 -252t-361.5 -88.5h-608zM266 53h553q134 0 255.5 46t213 129t145.5 208t54 273q0 151 -54.5 278t-147.5 212.5t-218.5 133t-267.5 47.5h-533v-1327z" />
<glyph unicode="E" horiz-adv-x="1243" d="M211 0v1434h901v-54h-846v-575h688v-53h-688v-699h858v-53h-913z" />
<glyph unicode="F" horiz-adv-x="1161" d="M211 0v1434h881v-54h-826v-614h668v-53h-668v-713h-55z" />
<glyph unicode="G" horiz-adv-x="1632" d="M100 717q0 159 58.5 298t158.5 237t237 154t290 56q224 -7 390 -105.5t261 -266.5l-55 -15q-88 156 -246 245t-350 89q-143 0 -269 -50t-218.5 -139.5t-146.5 -219.5t-54 -283q0 -200 91.5 -359t248 -246t346.5 -87q111 0 217.5 32.5t184 82.5t132.5 106t80 108v291h-475 v53h528v-702h-53v83t0.5 66t0.5 49.5v37t0.5 24t0.5 14.5v4h-2q-22 -32 -50 -63t-85 -77t-120.5 -80t-158 -58.5t-198.5 -24.5q-153 0 -290 56.5t-237 154t-158.5 237t-58.5 298.5z" />
<glyph unicode="H" horiz-adv-x="1472" d="M211 0v1434h55v-650h940v650h56v-1434h-56v731h-940v-731h-55z" />
<glyph unicode="I" horiz-adv-x="477" d="M211 0v1434h55v-1434h-55z" />
<glyph unicode="J" horiz-adv-x="1310" d="M33 342l57 14q47 -153 180 -243t305 -90q253 0 384 140.5t131 395.5v875h57v-867q0 -281 -146 -439.5t-426 -158.5q-198 0 -343 103t-199 270z" />
<glyph unicode="K" horiz-adv-x="1353" d="M211 0v1434h55v-480q0 -93 -1 -194.5t-1.5 -128t0.5 -45.5h2q1 0 48 47.5t119.5 120.5t105.5 106l573 574h70l-572 -572l639 -862h-65l-615 821l-303 -303v-518h-55z" />
<glyph unicode="L" horiz-adv-x="1132" d="M211 0v1434h55v-1381h826v-53h-881z" />
<glyph unicode="M" horiz-adv-x="1677" d="M211 0v1434h51l412 -715q59 -102 100 -179t52 -100l12 -24h2l12 24q11 23 52 100t100 179l411 715h51v-1434h-55v831q0 61 2 189.5t3.5 221.5t0.5 93h-2q-1 0 -14.5 -25t-44 -81t-62.5 -111l-440 -766h-31l-440 766q-32 55 -62.5 111t-44 81t-14.5 25h-2q-1 0 0.5 -93 t3.5 -221.5t2 -189.5v-831h-55z" />
<glyph unicode="N" horiz-adv-x="1525" d="M211 0v1434h51l848 -1139l154 -207h2q1 0 -0.5 42t-3.5 125t-2 157v1022h55v-1434h-51l-854 1149q-52 70 -90 123.5t-47.5 67.5t-10.5 14h-2q-1 0 0.5 -42t3.5 -125.5t2 -158.5v-1028h-55z" />
<glyph unicode="O" d="M100 717q0 159 58.5 298t158.5 237t237 154t290 56t290 -56t237 -154t159 -237t59 -298q0 -212 -100 -383.5t-270.5 -267t-374.5 -95.5q-153 0 -290 56.5t-237 154t-158.5 237t-58.5 298.5zM156 717q0 -201 92 -360t248.5 -245.5t347.5 -86.5q190 0 347 86.5t250 246 t93 359.5q0 153 -54.5 283.5t-147.5 219.5t-219.5 139t-268.5 50q-143 0 -269 -50t-218.5 -139.5t-146.5 -219.5t-54 -283z" />
<glyph unicode="P" horiz-adv-x="1157" d="M211 0v1434h371q241 0 377.5 -116.5t136.5 -320.5q0 -203 -136.5 -319.5t-377.5 -116.5h-316v-561h-55zM266 614h316q221 0 339.5 101.5t118.5 281.5q0 185 -122 284t-336 99h-316v-766z" />
<glyph unicode="Q" d="M100 717q0 159 58.5 298t158.5 237t237 154t290 56t290 -56t237 -154t159 -237t59 -298q0 -207 -96 -375.5t-259 -265.5t-360 -105v-241h-59v241q-147 5 -279 63.5t-228 156t-152 234.5t-56 292zM156 717q0 -201 92 -360t248.5 -245.5t347.5 -86.5q190 0 347 86.5 t250 246t93 359.5q0 153 -54.5 283.5t-147.5 219.5t-219.5 139t-268.5 50q-143 0 -269 -50t-218.5 -139.5t-146.5 -219.5t-54 -283z" />
<glyph unicode="R" horiz-adv-x="1247" d="M211 0v1434h373q239 0 375.5 -114t136.5 -314q0 -159 -86 -264t-242 -144l371 -598h-66l-364 586q-78 -8 -125 -8h-318v-578h-55zM266 627h314q221 0 340.5 101.5t119.5 277.5q0 182 -122.5 278t-337.5 96h-314v-753z" />
<glyph unicode="S" horiz-adv-x="1196" d="M92 387l53 14q8 -161 128.5 -268.5t326.5 -107.5q200 0 323.5 98t123.5 250q0 52 -16.5 96t-36.5 75t-63.5 60.5t-71.5 45t-88 35.5t-84.5 27t-89.5 23q-34 9 -50 13q-156 42 -220 71q-210 94 -210 277q0 165 134 265.5t341 100.5q191 0 324 -102t159 -275l-53 -14 q-22 154 -139.5 246t-288.5 92q-186 0 -304 -83.5t-118 -229.5q0 -32 9 -61t22 -51.5t37.5 -43.5t45.5 -36.5t57 -31t60.5 -25.5t67 -22.5t67 -19t68.5 -17.5q176 -45 255 -80q241 -110 241 -337q0 -174 -138.5 -287t-363.5 -113q-113 0 -208 33.5t-158 90.5t-100 132 t-42 160z" />
<glyph unicode="T" horiz-adv-x="1193" d="M61 1380v54h1072v-54h-508v-1380h-56v1380h-508z" />
<glyph unicode="U" horiz-adv-x="1447" d="M164 567v867h55v-875q0 -265 127 -400.5t377 -135.5q251 0 378.5 135.5t127.5 400.5v875h55v-867q0 -293 -142 -445.5t-419 -152.5t-418 152.5t-141 445.5z" />
<glyph unicode="V" horiz-adv-x="1468" d="M61 1434h58l532 -1176q13 -28 33.5 -76.5t34 -81t14.5 -32.5h2q1 0 14.5 32.5t34 81t33.5 76.5l533 1176h57l-651 -1434h-43z" />
<glyph unicode="W" horiz-adv-x="1914" d="M61 1434h54l415 -1153q18 -50 34 -100t22.5 -72.5t7.5 -22.5h2q1 0 6 22.5t18 72t29 100.5l291 923h35l291 -923q16 -51 29 -100.5t18 -72t6 -22.5h2q1 0 7.5 22.5t22 72.5t33.5 100l416 1153h53l-516 -1434h-37l-253 813q-33 105 -55.5 182t-27.5 99t-6 22h-2 q-1 0 -6.5 -22.5t-27.5 -99.5t-54 -181l-254 -813h-36z" />
<glyph unicode="X" horiz-adv-x="1341" d="M41 0l592 752l-537 682h72l405 -523q7 -9 33 -45t44.5 -61t19.5 -25h2q1 0 19.5 25t43.5 60t33 46l406 523h71l-536 -682l591 -752h-71l-469 600q-21 27 -43 57.5t-33 46t-12 15.5h-2q-1 0 -12 -15.5t-33 -46t-43 -57.5l-469 -600h-72z" />
<glyph unicode="Y" horiz-adv-x="1255" d="M41 1434h68l423 -523q13 -16 38 -46.5t41.5 -51t17.5 -20.5h2l94 118l422 523h67l-559 -686v-748h-55v748z" />
<glyph unicode="Z" horiz-adv-x="1384" d="M123 0v49l987 1229q15 20 38.5 45t38.5 40.5t15 16.5l-2 2h-4q-3 0 -9 -0.5t-15 -0.5h-22.5t-29.5 -0.5t-37.5 -0.5h-44.5h-895v54h1119v-50l-986 -1228q-24 -31 -47 -57t-33 -36.5t-10 -11.5l2 -2l8 1q8 0 23 0.5t33.5 1t44 1t51.5 0.5h914v-53h-1139z" />
<glyph unicode="[" horiz-adv-x="628" d="M211 -307v2060h336v-53h-275v-1954h275v-53h-336z" />
<glyph unicode="\" horiz-adv-x="907" d="M61 1434h52l733 -1434h-51z" />
<glyph unicode="]" horiz-adv-x="661" d="M115 -254h274v1954h-274v53h336v-2060h-336v53z" />
<glyph unicode="^" horiz-adv-x="1380" d="M211 977l479 481l479 -481l-43 -45l-436 446l-436 -446z" />
<glyph unicode="_" horiz-adv-x="1533" d="M211 0h1112v-43h-1112v43z" />
<glyph unicode="`" horiz-adv-x="610" d="M90 1741l27 45l407 -219l-24 -43z" />
<glyph unicode="a" horiz-adv-x="1472" d="M61 0l654 1434h43l653 -1434h-59l-213 471h-805l-213 -471h-60zM356 522h760l-313 695q-12 28 -29.5 68t-26.5 61.5t-10 21.5h-2q-1 0 -10 -21.5t-25.5 -61t-29.5 -68.5z" />
<glyph unicode="b" horiz-adv-x="1306" d="M211 0v1434h483q182 0 292 -91.5t110 -244.5q0 -110 -86 -198.5t-189 -102.5v-2q55 -2 119 -28.5t123 -72t98 -119t39 -159.5q0 -190 -123.5 -303t-324.5 -113h-541zM266 53h490q167 0 278 96.5t111 258.5q0 99 -56 181t-149 127.5t-201 45.5h-473v-709zM266 815h420 q157 0 255.5 83.5t98.5 201.5q0 129 -96 204.5t-258 75.5h-420v-565z" />
<glyph unicode="c" horiz-adv-x="1566" d="M100 717q0 159 58.5 298t158.5 237t237 154t290 56q208 0 380.5 -100t270.5 -272l-55 -15q-88 156 -246 245t-350 89q-143 0 -269 -50t-218.5 -139.5t-146.5 -219.5t-54 -283q0 -200 92 -359t249 -246t347 -87q202 0 366.5 101.5t251.5 274.5l54 -16q-91 -192 -270 -303 t-402 -111q-153 0 -290 56.5t-237 154t-158.5 237t-58.5 298.5z" />
<glyph unicode="d" horiz-adv-x="1642" d="M211 0v1434h588q153 0 289 -53.5t236.5 -147.5t159 -230t58.5 -294q0 -205 -98.5 -368.5t-263 -252t-361.5 -88.5h-608zM266 53h553q134 0 255.5 46t213 129t145.5 208t54 273q0 151 -54.5 278t-147.5 212.5t-218.5 133t-267.5 47.5h-533v-1327z" />
<glyph unicode="e" horiz-adv-x="1243" d="M211 0v1434h901v-54h-846v-575h688v-53h-688v-699h858v-53h-913z" />
<glyph unicode="f" horiz-adv-x="1161" d="M211 0v1434h881v-54h-826v-614h668v-53h-668v-713h-55z" />
<glyph unicode="g" horiz-adv-x="1632" d="M100 717q0 159 58.5 298t158.5 237t237 154t290 56q224 -7 390 -105.5t261 -266.5l-55 -15q-88 156 -246 245t-350 89q-143 0 -269 -50t-218.5 -139.5t-146.5 -219.5t-54 -283q0 -200 91.5 -359t248 -246t346.5 -87q111 0 217.5 32.5t184 82.5t132.5 106t80 108v291h-475 v53h528v-702h-53v83t0.5 66t0.5 49.5v37t0.5 24t0.5 14.5v4h-2q-22 -32 -50 -63t-85 -77t-120.5 -80t-158 -58.5t-198.5 -24.5q-153 0 -290 56.5t-237 154t-158.5 237t-58.5 298.5z" />
<glyph unicode="h" horiz-adv-x="1472" d="M211 0v1434h55v-650h940v650h56v-1434h-56v731h-940v-731h-55z" />
<glyph unicode="i" horiz-adv-x="477" d="M211 0v1434h55v-1434h-55z" />
<glyph unicode="j" horiz-adv-x="1310" d="M33 342l57 14q47 -153 180 -243t305 -90q253 0 384 140.5t131 395.5v875h57v-867q0 -281 -146 -439.5t-426 -158.5q-198 0 -343 103t-199 270z" />
<glyph unicode="k" horiz-adv-x="1353" d="M211 0v1434h55v-480q0 -93 -1 -194.5t-1.5 -128t0.5 -45.5h2q1 0 48 47.5t119.5 120.5t105.5 106l573 574h70l-572 -572l639 -862h-65l-615 821l-303 -303v-518h-55z" />
<glyph unicode="l" horiz-adv-x="1132" d="M211 0v1434h55v-1381h826v-53h-881z" />
<glyph unicode="m" horiz-adv-x="1677" d="M211 0v1434h51l412 -715q59 -102 100 -179t52 -100l12 -24h2l12 24q11 23 52 100t100 179l411 715h51v-1434h-55v831q0 61 2 189.5t3.5 221.5t0.5 93h-2q-1 0 -14.5 -25t-44 -81t-62.5 -111l-440 -766h-31l-440 766q-32 55 -62.5 111t-44 81t-14.5 25h-2q-1 0 0.5 -93 t3.5 -221.5t2 -189.5v-831h-55z" />
<glyph unicode="n" horiz-adv-x="1525" d="M211 0v1434h51l848 -1139l154 -207h2q1 0 -0.5 42t-3.5 125t-2 157v1022h55v-1434h-51l-854 1149q-52 70 -90 123.5t-47.5 67.5t-10.5 14h-2q-1 0 0.5 -42t3.5 -125.5t2 -158.5v-1028h-55z" />
<glyph unicode="o" d="M100 717q0 159 58.5 298t158.5 237t237 154t290 56t290 -56t237 -154t159 -237t59 -298q0 -212 -100 -383.5t-270.5 -267t-374.5 -95.5q-153 0 -290 56.5t-237 154t-158.5 237t-58.5 298.5zM156 717q0 -201 92 -360t248.5 -245.5t347.5 -86.5q190 0 347 86.5t250 246 t93 359.5q0 153 -54.5 283.5t-147.5 219.5t-219.5 139t-268.5 50q-143 0 -269 -50t-218.5 -139.5t-146.5 -219.5t-54 -283z" />
<glyph unicode="p" horiz-adv-x="1157" d="M211 0v1434h371q241 0 377.5 -116.5t136.5 -320.5q0 -203 -136.5 -319.5t-377.5 -116.5h-316v-561h-55zM266 614h316q221 0 339.5 101.5t118.5 281.5q0 185 -122 284t-336 99h-316v-766z" />
<glyph unicode="q" d="M100 717q0 159 58.5 298t158.5 237t237 154t290 56t290 -56t237 -154t159 -237t59 -298q0 -207 -96 -375.5t-259 -265.5t-360 -105v-241h-59v241q-147 5 -279 63.5t-228 156t-152 234.5t-56 292zM156 717q0 -201 92 -360t248.5 -245.5t347.5 -86.5q190 0 347 86.5 t250 246t93 359.5q0 153 -54.5 283.5t-147.5 219.5t-219.5 139t-268.5 50q-143 0 -269 -50t-218.5 -139.5t-146.5 -219.5t-54 -283z" />
<glyph unicode="r" horiz-adv-x="1247" d="M211 0v1434h373q239 0 375.5 -114t136.5 -314q0 -159 -86 -264t-242 -144l371 -598h-66l-364 586q-78 -8 -125 -8h-318v-578h-55zM266 627h314q221 0 340.5 101.5t119.5 277.5q0 182 -122.5 278t-337.5 96h-314v-753z" />
<glyph unicode="s" horiz-adv-x="1196" d="M92 387l53 14q8 -161 128.5 -268.5t326.5 -107.5q200 0 323.5 98t123.5 250q0 52 -16.5 96t-36.5 75t-63.5 60.5t-71.5 45t-88 35.5t-84.5 27t-89.5 23q-34 9 -50 13q-156 42 -220 71q-210 94 -210 277q0 165 134 265.5t341 100.5q191 0 324 -102t159 -275l-53 -14 q-22 154 -139.5 246t-288.5 92q-186 0 -304 -83.5t-118 -229.5q0 -32 9 -61t22 -51.5t37.5 -43.5t45.5 -36.5t57 -31t60.5 -25.5t67 -22.5t67 -19t68.5 -17.5q176 -45 255 -80q241 -110 241 -337q0 -174 -138.5 -287t-363.5 -113q-113 0 -208 33.5t-158 90.5t-100 132 t-42 160z" />
<glyph unicode="t" horiz-adv-x="1193" d="M61 1380v54h1072v-54h-508v-1380h-56v1380h-508z" />
<glyph unicode="u" horiz-adv-x="1447" d="M164 567v867h55v-875q0 -265 127 -400.5t377 -135.5q251 0 378.5 135.5t127.5 400.5v875h55v-867q0 -293 -142 -445.5t-419 -152.5t-418 152.5t-141 445.5z" />
<glyph unicode="v" horiz-adv-x="1468" d="M61 1434h58l532 -1176q13 -28 33.5 -76.5t34 -81t14.5 -32.5h2q1 0 14.5 32.5t34 81t33.5 76.5l533 1176h57l-651 -1434h-43z" />
<glyph unicode="w" horiz-adv-x="1914" d="M61 1434h54l415 -1153q18 -50 34 -100t22.5 -72.5t7.5 -22.5h2q1 0 6 22.5t18 72t29 100.5l291 923h35l291 -923q16 -51 29 -100.5t18 -72t6 -22.5h2q1 0 7.5 22.5t22 72.5t33.5 100l416 1153h53l-516 -1434h-37l-253 813q-33 105 -55.5 182t-27.5 99t-6 22h-2 q-1 0 -6.5 -22.5t-27.5 -99.5t-54 -181l-254 -813h-36z" />
<glyph unicode="x" horiz-adv-x="1341" d="M41 0l592 752l-537 682h72l405 -523q7 -9 33 -45t44.5 -61t19.5 -25h2q1 0 19.5 25t43.5 60t33 46l406 523h71l-536 -682l591 -752h-71l-469 600q-21 27 -43 57.5t-33 46t-12 15.5h-2q-1 0 -12 -15.5t-33 -46t-43 -57.5l-469 -600h-72z" />
<glyph unicode="y" horiz-adv-x="1255" d="M41 1434h68l423 -523q13 -16 38 -46.5t41.5 -51t17.5 -20.5h2l94 118l422 523h67l-559 -686v-748h-55v748z" />
<glyph unicode="z" horiz-adv-x="1384" d="M123 0v49l987 1229q15 20 38.5 45t38.5 40.5t15 16.5l-2 2h-4q-3 0 -9 -0.5t-15 -0.5h-22.5t-29.5 -0.5t-37.5 -0.5h-44.5h-895v54h1119v-50l-986 -1228q-24 -31 -47 -57t-33 -36.5t-10 -11.5l2 -2l8 1q8 0 23 0.5t33.5 1t44 1t51.5 0.5h914v-53h-1139z" />
<glyph unicode="{" horiz-adv-x="716" d="M211 721q5 2 14.5 6t32.5 25.5t41 53t32.5 92.5t14.5 138v293q0 119 24.5 203t70.5 130.5t103 66.5t132 20v-53q-56 0 -101.5 -15t-86.5 -51t-64 -104.5t-23 -165.5v-316q0 -248 -112 -323q9 -5 19 -12.5t28 -32.5t31 -57.5t23.5 -91.5t10.5 -132v-313q0 -97 23 -165.5 t64 -104.5t86.5 -51t101.5 -15v-53q-75 0 -132 20t-103 66.5t-70.5 130.5t-24.5 203v293q0 77 -14 138t-33.5 92.5t-39.5 52.5t-34 27z" />
<glyph unicode="|" horiz-adv-x="477" d="M211 -152v1739h55v-1739h-55z" />
<glyph unicode="}" horiz-adv-x="716" d="M41 -254q56 0 101.5 15t86 51t63.5 104.5t23 165.5v313q0 73 10.5 132t23.5 91.5t31.5 57.5t28 32.5t19.5 12.5q-113 75 -113 323v316q0 97 -23 165.5t-63.5 104.5t-86 51t-101.5 15v53q75 0 132 -20t103 -66.5t70.5 -130.5t24.5 -203v-293q0 -77 14 -138t33.5 -92.5 t39.5 -52.5t34 -27l14 -5q-5 -2 -14.5 -6t-32.5 -25.5t-41 -53t-32.5 -92.5t-14.5 -138v-293q0 -119 -24.5 -203t-70.5 -130.5t-103 -66.5t-132 -20v53z" />
<glyph unicode="~" horiz-adv-x="1429" d="M338 674q12 74 68.5 120t142.5 46q44 0 84 -17.5t69.5 -42t58 -49t61.5 -42t67 -17.5q61 0 103.5 36.5t47.5 92.5l54 -15q-11 -72 -66 -117.5t-139 -45.5q-52 0 -101.5 26t-81.5 56.5t-75.5 56.5t-85.5 26q-64 0 -105 -35t-49 -91z" />
<glyph unicode="&#xa1;" horiz-adv-x="477" d="M211 0v948h55v-948h-55zM211 1112v322h55v-322h-55z" />
<glyph unicode="&#xa2;" horiz-adv-x="1140" d="M100 723q0 216 142 363.5t350 158.5v217h53v-217q139 -7 253.5 -77.5t176.5 -186.5l-47 -14q-60 109 -168 169t-242 60q-201 0 -331.5 -130.5t-130.5 -342.5q0 -210 131 -340.5t331 -130.5q142 0 256 67t170 187l46 -14q-59 -129 -177.5 -207.5t-267.5 -85.5v-228h-51 v228q-208 9 -351 157.5t-143 366.5z" />
<glyph unicode="&#xa3;" horiz-adv-x="1351" d="M211 0v53q98 21 147.5 87t56.5 170t-5 247l-15 168h-164v53h158l-20 236q-17 193 93.5 318t299.5 130q74 2 139.5 -16t127 -59t110 -118t75.5 -184l-53 -14q-53 187 -156 265t-253 73q-160 -5 -252.5 -114.5t-77.5 -278.5l20 -238h543v-53h-536l14 -168 q21 -228 -13.5 -346.5t-125.5 -159.5l2 -2h9q9 0 25.5 0.5t39 0.5t51 0.5t60.5 1t69 0.5t74 0.5t78.5 0.5h80.5h438v-53h-1040z" />
<glyph unicode="&#xa4;" horiz-adv-x="1318" d="M100 203l160 162q-125 144 -125 335q0 103 39 198.5t109 168.5l-150 147l37 37l154 -149q148 125 335 125q193 0 338 -123l152 147l35 -37l-148 -147q71 -72 110.5 -167t39.5 -200q0 -191 -125 -338l158 -159l-37 -37l-156 158q-74 -69 -169 -108.5t-198 -39.5 q-205 0 -366 148l-158 -158zM190 700q0 -128 62 -236.5t170 -171.5t237 -63q197 0 334 137.5t137 333.5q0 128 -62 237t-170.5 173t-238.5 64q-129 0 -237 -64t-170 -173t-62 -237z" />
<glyph unicode="&#xa5;" horiz-adv-x="1255" d="M41 1434h68l423 -523q13 -16 38 -46.5t41.5 -51t17.5 -20.5h2l94 118l422 523h67l-507 -623h374v-57h-422l-4 -6v-86h426v-56h-426v-606h-55v606h-407v56h407v86l-4 6h-403v57h356z" />
<glyph unicode="&#xa6;" horiz-adv-x="477" d="M211 -152v594h55v-594h-55zM211 1014v573h55v-573h-55z" />
<glyph unicode="&#xa7;" horiz-adv-x="1069" d="M92 274l51 15q10 -119 108 -195.5t277 -77.5q170 0 278.5 68t108.5 172q0 41 -16 75t-45.5 58t-65.5 43t-81 33t-85.5 24t-87.5 20l-42 9q-148 34 -200 52q-190 69 -190 202q0 91 70.5 153.5t189.5 88.5q-93 29 -149.5 77t-56.5 128q0 115 112 183t285 68 q161 0 270 -70.5t129 -193.5l-57 -16q-13 103 -106 164t-234 61q-152 0 -247 -52t-95 -144q0 -29 11.5 -53.5t42.5 -44t52.5 -31.5t75 -27t73 -19.5t82.5 -18.5q9 -2 13 -3q165 -37 235 -67q176 -78 177 -224q0 -85 -58.5 -141.5t-166.5 -83.5q221 -80 221 -250 q0 -127 -123 -210t-320 -83q-196 0 -310.5 89.5t-125.5 221.5zM158 772q0 -37 22.5 -68t57 -51.5t85 -37.5t97.5 -28.5t104 -23.5q3 0 5.5 -0.5t5.5 -1.5q73 -14 141 -33q106 21 174 75t68 128q0 36 -13.5 66t-35 51.5t-55.5 40t-66.5 30.5t-76.5 23.5t-77.5 18t-77.5 15.5 t-70 15q-51 -7 -97.5 -22.5t-91.5 -40.5t-72 -65.5t-27 -90.5z" />
<glyph unicode="&#xa8;" horiz-adv-x="747" d="M90 1630q0 27 18.5 46.5t47.5 19.5t48 -19.5t19 -46.5q0 -29 -19 -48t-48 -19t-47.5 19t-18.5 48zM528 1630q0 26 20 46t48 20q29 0 48.5 -19.5t19.5 -46.5q0 -29 -19.5 -48t-48.5 -19q-28 0 -48 19t-20 48z" />
<glyph unicode="&#xa9;" d="M100 717q0 159 58.5 298t158.5 237t237 154t290 56t290 -56t237 -154t159 -237t59 -298q0 -212 -100 -383.5t-270.5 -267t-374.5 -95.5q-153 0 -290 56.5t-237 154t-158.5 237t-58.5 298.5zM156 717q0 -205 91 -363.5t247 -243.5t350 -85q193 0 349.5 85t248.5 244 t92 363q0 207 -92 366t-248 242.5t-350 83.5q-195 0 -350.5 -83.5t-246.5 -242.5t-91 -366zM481 713q0 162 105.5 269.5t267.5 107.5q102 0 197 -57t135 -142l-49 -17q-36 71 -116 116.5t-167 45.5q-137 0 -227 -91t-90 -232q0 -142 90 -233t227 -91q92 0 175 51.5 t118 130.5l51 -16q-38 -93 -137 -156t-207 -63q-162 0 -267.5 107t-105.5 270z" />
<glyph unicode="&#xaa;" horiz-adv-x="702" d="M41 575v54h621v-54h-621zM47 768l287 682h33l286 -682h-61l-80 193h-324l-79 -193h-62zM209 1010h283l-101 243q-9 20 -18 53t-14.5 54.5t-6.5 21.5h-2q-1 0 -6.5 -21.5t-14.5 -54.5t-18 -53z" />
<glyph unicode="&#xab;" horiz-adv-x="1486" d="M211 721l481 479l39 -37l-446 -442l446 -442l-39 -37zM756 721l481 479l39 -37l-447 -442l447 -442l-39 -37z" />
<glyph unicode="&#xad;" horiz-adv-x="1382" d="M211 702v54h960v-54h-960z" />
<glyph unicode="&#xae;" d="M100 717q0 159 58.5 298t158.5 237t237 154t290 56t290 -56t237 -154t159 -237t59 -298q0 -212 -100 -383.5t-270.5 -267t-374.5 -95.5q-153 0 -290 56.5t-237 154t-158.5 237t-58.5 298.5zM156 717q0 -205 91 -363.5t247 -243.5t350 -85q193 0 349.5 85t248.5 244 t92 363q0 207 -92 366t-248 242.5t-350 83.5q-195 0 -350.5 -83.5t-246.5 -242.5t-91 -366zM633 336v762h217q127 0 200.5 -61t73.5 -167q0 -84 -43.5 -139.5t-122.5 -77.5l197 -317h-65l-193 305q-16 -2 -47 -2h-162v-303h-55zM688 692h160q115 0 168 43t53 135 q0 174 -221 174h-160v-352z" />
<glyph unicode="&#xaf;" horiz-adv-x="804" d="M90 1448v47h629v-47h-629z" />
<glyph unicode="&#xb0;" horiz-adv-x="542" d="M100 1403q0 72 49 121t121 49q70 0 121 -49.5t51 -120.5q0 -70 -51 -120t-121 -50q-72 0 -121 49.5t-49 120.5zM143 1403q0 -51 37.5 -88t89.5 -37q51 0 89 37t38 88q0 53 -37.5 89t-89.5 36q-53 0 -90 -36t-37 -89z" />
<glyph unicode="&#xb1;" horiz-adv-x="1429" d="M236 -20v53h960v-53h-960zM236 702v54h450v434h59v-434h451v-54h-451v-444h-59v444h-450z" />
<glyph unicode="&#xb2;" horiz-adv-x="659" d="M41 1550q62 232 297 232q118 0 199 -75t81 -181q0 -146 -163 -275q-37 -28 -112 -86.5t-112 -87.5q-18 -14 -36 -26t-31.5 -20t-24.5 -14t-17 -9l-7 -4l2 -3q91 13 194 13h299v-53h-551v45l379 294q52 40 88.5 102.5t36.5 121.5q0 89 -64.5 147t-160.5 58 q-104 0 -159 -45.5t-83 -147.5z" />
<glyph unicode="&#xb3;" horiz-adv-x="653" d="M41 1200l57 12q1 -95 70 -155t170 -60q108 0 163.5 55t55.5 136q0 73 -62 119.5t-161 46.5h-86v49h86q99 0 158 48t59 124q0 25 -11 50t-34 49.5t-67 39.5t-103 15q-185 0 -225 -191l-54 16q17 103 92.5 165.5t186.5 62.5q138 0 204 -61t66 -148q0 -78 -54.5 -132.5 t-135.5 -60.5v-2q83 -6 139.5 -58t56.5 -132q0 -111 -77.5 -177.5t-196.5 -66.5q-118 0 -203 70.5t-94 185.5z" />
<glyph unicode="&#xb4;" horiz-adv-x="610" d="M90 1567l408 219l26 -45l-409 -217z" />
<glyph unicode="&#xb6;" horiz-adv-x="1099" d="M100 1100q0 157 109.5 245.5t302.5 88.5h377v-1434h-55v1380h-177v-1380h-55v766h-90q-193 0 -302.5 88.5t-109.5 245.5z" />
<glyph unicode="&#xb7;" horiz-adv-x="372" d="M123 696q0 28 18.5 46t44.5 18q27 0 45.5 -18.5t18.5 -45.5t-18.5 -45t-45.5 -18t-45 18t-18 45z" />
<glyph unicode="&#xb8;" horiz-adv-x="456" d="M90 -434l21 47h61q67 0 108.5 33t41.5 88q0 56 -42 91.5t-108 35.5h-74l52 139h53l-37 -94q93 1 149 -46t56 -126q0 -74 -54.5 -121t-144.5 -47h-82z" />
<glyph unicode="&#xb9;" horiz-adv-x="399" d="M33 1530l241 235h37v-804h-55v546q0 14 1 39t2.5 50t3 48t2.5 38l1 16h-2q-1 0 -9.5 -12t-23.5 -30.5t-28 -31.5l-133 -131z" />
<glyph unicode="&#xba;" horiz-adv-x="755" d="M20 1106q0 154 104 256t253 102q150 0 254 -102t104 -256q0 -152 -104.5 -254t-253.5 -102t-253 102t-104 254zM43 575v54h674v-54h-674zM74 1106q0 -130 87 -216.5t216 -86.5t216 86.5t87 216.5q0 132 -87 218.5t-216 86.5t-216 -86.5t-87 -218.5z" />
<glyph unicode="&#xbb;" horiz-adv-x="1486" d="M211 279l446 442l-446 442l39 37l481 -479l-481 -479zM756 279l446 442l-446 442l39 37l481 -479l-481 -479z" />
<glyph unicode="&#xbc;" horiz-adv-x="1290" d="M33 1198l241 236h37v-805h-55v547q0 14 1 38.5t2.5 50t3 48.5t2.5 38l1 15h-2q-1 0 -9.5 -12t-23.5 -30.5t-28 -31.5l-133 -131zM111 0l946 1434h59l-946 -1434h-59zM641 227v41l459 537h33v-524h116v-54h-116v-227h-56v227h-436zM700 281l2 -2h10t24 0.5t34 1t45 0.5h51 h211v211q0 29 0.5 57t1.5 50t2 42t2 34.5t2 25t1 16.5l1 6h-2q-1 0 -24.5 -34t-63 -86.5t-71.5 -88.5l-111 -127q-18 -22 -47 -48t-48 -42z" />
<glyph unicode="&#xbd;" horiz-adv-x="1382" d="M33 1198l241 236h37v-805h-55v547q0 14 1 38.5t2.5 50t3 48.5t2.5 38l1 15h-2q-1 0 -9.5 -12t-23.5 -30.5t-28 -31.5l-133 -131zM111 0l946 1434h59l-946 -1434h-59zM764 590q62 231 297 231q118 0 199 -75t81 -181q0 -145 -163 -274q-37 -28 -112 -87t-112 -87 q-18 -14 -36 -26.5t-31.5 -20.5t-24.5 -14t-18 -10l-6 -3l2 -2q84 12 194 12h299v-53h-551v45l379 295q52 40 88.5 102t36.5 121q0 89 -64.5 147t-160.5 58q-104 0 -159 -45.5t-83 -147.5z" />
<glyph unicode="&#xbe;" horiz-adv-x="1460" d="M41 868l57 13q1 -95 70 -155t170 -60q108 0 163.5 54.5t55.5 135.5q0 73 -62 119.5t-161 46.5h-86v49h86q99 0 158 48t59 124q0 25 -11 50t-34 49.5t-67 39.5t-103 15q-185 0 -225 -191l-54 17q17 102 92.5 164.5t186.5 62.5q138 0 204 -61t66 -148q0 -78 -54.5 -132 t-135.5 -60v-2q83 -6 139.5 -58t56.5 -133q0 -111 -77.5 -177.5t-196.5 -66.5q-118 0 -203 70.5t-94 185.5zM281 0l946 1434h59l-946 -1434h-59zM811 227v41l459 537h33v-524h116v-54h-116v-227h-56v227h-436zM870 281l2 -2h10t24 0.5t34 1t45 0.5h51h211v211q0 29 0.5 57 t1.5 50t2 42t2 34.5t2 25t1 16.5l1 6h-2q-1 0 -24.5 -34t-63 -86.5t-71.5 -88.5l-111 -127q-18 -22 -47 -48t-48 -42z" />
<glyph unicode="&#xbf;" horiz-adv-x="1153" d="M100 358q0 73 29.5 137t74.5 110t112 88t127 68.5t135 53.5v133h59v-168q-263 -98 -371 -194t-108 -230q0 -47 11 -91t39.5 -88t72.5 -76.5t116 -53t164 -20.5q360 0 440 333l52 -14q-39 -180 -168.5 -277.5t-323.5 -97.5q-126 0 -219.5 34t-144 91.5t-74 122.5 t-23.5 139zM578 1112v322h59v-322h-59z" />
<glyph unicode="&#xc0;" horiz-adv-x="1472" d="M61 0l654 1434h43l653 -1434h-59l-213 471h-805l-213 -471h-60zM356 522h760l-313 695q-12 28 -29.5 68t-26.5 61.5t-10 21.5h-2q-1 0 -10 -21.5t-25.5 -61t-29.5 -68.5zM442 1741l29 45l406 -219l-25 -43z" />
<glyph unicode="&#xc1;" horiz-adv-x="1472" d="M61 0l654 1434h43l653 -1434h-59l-213 471h-805l-213 -471h-60zM356 522h760l-313 695q-12 28 -29.5 68t-26.5 61.5t-10 21.5h-2q-1 0 -10 -21.5t-25.5 -61t-29.5 -68.5zM573 1567l406 219l29 -45l-410 -217z" />
<glyph unicode="&#xc2;" horiz-adv-x="1472" d="M61 0l654 1434h43l653 -1434h-59l-213 471h-805l-213 -471h-60zM356 522h760l-313 695q-12 28 -29.5 68t-26.5 61.5t-10 21.5h-2q-1 0 -10 -21.5t-25.5 -61t-29.5 -68.5zM434 1577l301 256l303 -256l-34 -37l-269 229l-266 -229z" />
<glyph unicode="&#xc3;" horiz-adv-x="1472" d="M61 0l654 1434h43l653 -1434h-59l-213 471h-805l-213 -471h-60zM356 522h760l-313 695q-12 28 -29.5 68t-26.5 61.5t-10 21.5h-2q-1 0 -10 -21.5t-25.5 -61t-29.5 -68.5zM444 1583q0 63 46 104.5t118 41.5q38 0 74.5 -17.5t60.5 -38t54.5 -38t58.5 -17.5q44 0 76 28.5 t33 71.5h51q2 -63 -44 -104t-118 -41q-35 0 -70.5 17.5t-60 39t-57 39t-62.5 17.5q-45 0 -75.5 -30t-30.5 -73h-54z" />
<glyph unicode="&#xc4;" horiz-adv-x="1472" d="M61 0l654 1434h43l653 -1434h-59l-213 471h-805l-213 -471h-60zM356 522h760l-313 695q-12 28 -29.5 68t-26.5 61.5t-10 21.5h-2q-1 0 -10 -21.5t-25.5 -61t-29.5 -68.5zM446 1630q0 27 18.5 46.5t47.5 19.5q28 0 48 -20t20 -46q0 -29 -20 -48t-48 -19q-29 0 -47.5 19 t-18.5 48zM885 1630q0 26 19.5 46t47.5 20q29 0 47.5 -19.5t18.5 -46.5q0 -29 -18.5 -48t-47.5 -19q-28 0 -47.5 19t-19.5 48z" />
<glyph unicode="&#xc5;" horiz-adv-x="1472" d="M61 0l652 1432q-63 7 -104.5 54.5t-41.5 112.5q0 72 49 121t121 49q70 0 121 -49.5t51 -120.5q0 -64 -43.5 -111.5t-105.5 -55.5l651 -1432h-59l-213 471h-805l-213 -471h-60zM356 522h760l-313 695q-12 28 -29.5 68t-26.5 61.5t-10 21.5h-2q-1 0 -10 -21.5t-25.5 -61 t-29.5 -68.5zM610 1599q0 -51 37.5 -87.5t89.5 -36.5q51 0 89 36.5t38 87.5q0 53 -37.5 89t-89.5 36q-53 0 -90 -36t-37 -89z" />
<glyph unicode="&#xc6;" horiz-adv-x="1984" d="M61 0l678 1434h1114v-54h-843v-575h690v-53h-690v-699h856v-53h-916v471h-606l-223 -471h-60zM369 522h581v858h-180q-1 0 -20 -42t-50 -110t-49 -106z" />
<glyph unicode="&#xc7;" horiz-adv-x="1566" d="M100 717q0 159 58.5 298t158.5 237t237 154t290 56q208 0 380.5 -100t270.5 -272l-55 -15q-88 156 -246 245t-350 89q-143 0 -269 -50t-218.5 -139.5t-146.5 -219.5t-54 -283q0 -200 92 -359t249 -246t347 -87q202 0 366.5 101.5t251.5 274.5l54 -16q-91 -192 -270 -303 t-402 -111h-2l-27 -65q94 1 149.5 -46t55.5 -126q0 -74 -54.5 -121t-144.5 -47h-82l21 47h61q67 0 108.5 33t41.5 88q0 56 -42 91.5t-108 35.5h-73l40 112q-143 10 -269.5 70t-219 156.5t-146 231t-53.5 286.5z" />
<glyph unicode="&#xc8;" horiz-adv-x="1243" d="M211 0v1434h901v-54h-846v-575h688v-53h-688v-699h858v-53h-913zM365 1741l28 45l406 -219l-25 -43z" />
<glyph unicode="&#xc9;" horiz-adv-x="1243" d="M211 0v1434h901v-54h-846v-575h688v-53h-688v-699h858v-53h-913zM496 1567l405 219l29 -45l-410 -217z" />
<glyph unicode="&#xca;" horiz-adv-x="1243" d="M211 0v1434h901v-54h-846v-575h688v-53h-688v-699h858v-53h-913zM356 1577l301 256l304 -256l-35 -37l-269 229l-266 -229z" />
<glyph unicode="&#xcb;" horiz-adv-x="1243" d="M211 0v1434h901v-54h-846v-575h688v-53h-688v-699h858v-53h-913zM369 1630q0 27 18.5 46.5t46.5 19.5t48 -20t20 -46q0 -29 -20 -48t-48 -19q-29 0 -47 19t-18 48zM807 1630q0 26 19.5 46t47.5 20q29 0 47.5 -19.5t18.5 -46.5q0 -29 -18.5 -48t-47.5 -19q-28 0 -47.5 19 t-19.5 48z" />
<glyph unicode="&#xcc;" horiz-adv-x="477" d="M-57 1741l28 45l406 -219l-25 -43zM211 0v1434h55v-1434h-55z" />
<glyph unicode="&#xcd;" horiz-adv-x="477" d="M74 1567l405 219l29 -45l-410 -217zM211 0v1434h55v-1434h-55z" />
<glyph unicode="&#xce;" horiz-adv-x="477" d="M-66 1577l302 256l303 -256l-35 -37l-268 229l-267 -229zM211 0v1434h55v-1434h-55z" />
<glyph unicode="&#xcf;" horiz-adv-x="477" d="M-53 1630q0 27 18.5 46.5t46.5 19.5t48 -20t20 -46q0 -29 -20 -48t-48 -19q-29 0 -47 19t-18 48zM211 0v1434h55v-1434h-55zM385 1630q0 26 20 46t48 20t46.5 -19.5t18.5 -46.5q0 -29 -18 -48t-47 -19q-28 0 -48 19t-20 48z" />
<glyph unicode="&#xd0;" horiz-adv-x="1640" d="M100 707v53h109v674h588q153 0 289 -53.5t236.5 -147.5t159 -230t58.5 -294q0 -205 -98.5 -368.5t-263 -252t-361.5 -88.5h-608v707h-109zM264 53h553q134 0 255.5 46t213 129t145.5 208t54 273q0 151 -54.5 278t-147.5 212.5t-218.5 133t-267.5 47.5h-533v-620h457v-53 h-457v-654z" />
<glyph unicode="&#xd1;" horiz-adv-x="1525" d="M211 0v1434h51l848 -1139l154 -207h2q1 0 -0.5 42t-3.5 125t-2 157v1022h55v-1434h-51l-854 1149q-52 70 -90 123.5t-47.5 67.5t-10.5 14h-2q-1 0 0.5 -42t3.5 -125.5t2 -158.5v-1028h-55zM475 1583q0 63 46 104.5t118 41.5q38 0 74.5 -17.5t60.5 -38t54.5 -38 t58.5 -17.5q44 0 75.5 28.5t32.5 71.5h52q2 -63 -44 -104t-118 -41q-35 0 -70.5 17.5t-60 39t-57 39t-62.5 17.5q-45 0 -76 -30t-31 -73h-53z" />
<glyph unicode="&#xd2;" d="M100 717q0 159 58.5 298t158.5 237t237 154t290 56t290 -56t237 -154t159 -237t59 -298q0 -212 -100 -383.5t-270.5 -267t-374.5 -95.5q-153 0 -290 56.5t-237 154t-158.5 237t-58.5 298.5zM156 717q0 -201 92 -360t248.5 -245.5t347.5 -86.5q190 0 347 86.5t250 246 t93 359.5q0 153 -54.5 283.5t-147.5 219.5t-219.5 139t-268.5 50q-143 0 -269 -50t-218.5 -139.5t-146.5 -219.5t-54 -283zM559 1741l29 45l405 -219l-24 -43z" />
<glyph unicode="&#xd3;" d="M100 717q0 159 58.5 298t158.5 237t237 154t290 56t290 -56t237 -154t159 -237t59 -298q0 -212 -100 -383.5t-270.5 -267t-374.5 -95.5q-153 0 -290 56.5t-237 154t-158.5 237t-58.5 298.5zM156 717q0 -201 92 -360t248.5 -245.5t347.5 -86.5q190 0 347 86.5t250 246 t93 359.5q0 153 -54.5 283.5t-147.5 219.5t-219.5 139t-268.5 50q-143 0 -269 -50t-218.5 -139.5t-146.5 -219.5t-54 -283zM690 1567l406 219l28 -45l-409 -217z" />
<glyph unicode="&#xd4;" d="M100 717q0 159 58.5 298t158.5 237t237 154t290 56t290 -56t237 -154t159 -237t59 -298q0 -212 -100 -383.5t-270.5 -267t-374.5 -95.5q-153 0 -290 56.5t-237 154t-158.5 237t-58.5 298.5zM156 717q0 -201 92 -360t248.5 -245.5t347.5 -86.5q190 0 347 86.5t250 246 t93 359.5q0 153 -54.5 283.5t-147.5 219.5t-219.5 139t-268.5 50q-143 0 -269 -50t-218.5 -139.5t-146.5 -219.5t-54 -283zM551 1577l301 256l303 -256l-35 -37l-268 229l-266 -229z" />
<glyph unicode="&#xd5;" d="M100 717q0 159 58.5 298t158.5 237t237 154t290 56t290 -56t237 -154t159 -237t59 -298q0 -212 -100 -383.5t-270.5 -267t-374.5 -95.5q-153 0 -290 56.5t-237 154t-158.5 237t-58.5 298.5zM156 717q0 -201 92 -360t248.5 -245.5t347.5 -86.5q190 0 347 86.5t250 246 t93 359.5q0 153 -54.5 283.5t-147.5 219.5t-219.5 139t-268.5 50q-143 0 -269 -50t-218.5 -139.5t-146.5 -219.5t-54 -283zM561 1583q0 63 46 104.5t118 41.5q38 0 74.5 -17.5t60.5 -38t54.5 -38t58.5 -17.5q44 0 75.5 28.5t32.5 71.5h52q2 -63 -44 -104t-118 -41 q-35 0 -70.5 17.5t-60 39t-57 39t-62.5 17.5q-45 0 -76 -30t-31 -73h-53z" />
<glyph unicode="&#xd6;" d="M100 717q0 159 58.5 298t158.5 237t237 154t290 56t290 -56t237 -154t159 -237t59 -298q0 -212 -100 -383.5t-270.5 -267t-374.5 -95.5q-153 0 -290 56.5t-237 154t-158.5 237t-58.5 298.5zM156 717q0 -201 92 -360t248.5 -245.5t347.5 -86.5q190 0 347 86.5t250 246 t93 359.5q0 153 -54.5 283.5t-147.5 219.5t-219.5 139t-268.5 50q-143 0 -269 -50t-218.5 -139.5t-146.5 -219.5t-54 -283zM563 1630q0 27 18.5 46.5t47.5 19.5q27 0 47 -20t20 -46q0 -29 -19.5 -48t-47.5 -19q-29 0 -47.5 19t-18.5 48zM1001 1630q0 26 20 46t48 20 q29 0 47.5 -19.5t18.5 -46.5q0 -29 -18.5 -48t-47.5 -19q-28 0 -48 19t-20 48z" />
<glyph unicode="&#xd7;" horiz-adv-x="1429" d="M346 410l334 333l-334 334l35 35l334 -332l334 332l34 -35l-331 -334l333 -333l-36 -35l-334 334l-334 -334z" />
<glyph unicode="&#xd8;" d="M100 717q0 159 58.5 298t158.5 237t237 154t290 56q245 0 438 -135l84 111l39 -29l-84 -113q126 -102 197 -251.5t71 -327.5q0 -212 -100 -383.5t-270.5 -267t-374.5 -95.5q-238 0 -430 131l-78 -104l-39 31l78 102q-129 102 -202 253.5t-73 332.5zM156 717 q0 -170 66 -310.5t184 -234.5l845 1114q-181 123 -407 123q-143 0 -269 -50t-218.5 -139.5t-146.5 -219.5t-54 -283zM446 143q172 -118 398 -118q190 0 347 86.5t250 246t93 359.5q0 169 -64.5 307t-179.5 231z" />
<glyph unicode="&#xd9;" horiz-adv-x="1447" d="M164 567v867h55v-875q0 -265 127 -400.5t377 -135.5q251 0 378.5 135.5t127.5 400.5v875h55v-867q0 -293 -142 -445.5t-419 -152.5t-418 152.5t-141 445.5zM436 1741l29 45l405 -219l-24 -43z" />
<glyph unicode="&#xda;" horiz-adv-x="1447" d="M164 567v867h55v-875q0 -265 127 -400.5t377 -135.5q251 0 378.5 135.5t127.5 400.5v875h55v-867q0 -293 -142 -445.5t-419 -152.5t-418 152.5t-141 445.5zM567 1567l406 219l28 -45l-409 -217z" />
<glyph unicode="&#xdb;" horiz-adv-x="1447" d="M164 567v867h55v-875q0 -265 127 -400.5t377 -135.5q251 0 378.5 135.5t127.5 400.5v875h55v-867q0 -293 -142 -445.5t-419 -152.5t-418 152.5t-141 445.5zM428 1577l301 256l303 -256l-35 -37l-268 229l-266 -229z" />
<glyph unicode="&#xdc;" horiz-adv-x="1447" d="M164 567v867h55v-875q0 -265 127 -400.5t377 -135.5q251 0 378.5 135.5t127.5 400.5v875h55v-867q0 -293 -142 -445.5t-419 -152.5t-418 152.5t-141 445.5zM440 1630q0 27 18.5 46.5t47.5 19.5q28 0 47.5 -20t19.5 -46q0 -29 -19.5 -48t-47.5 -19q-29 0 -47.5 19 t-18.5 48zM879 1630q0 26 19.5 46t47.5 20q29 0 47.5 -19.5t18.5 -46.5q0 -29 -18.5 -48t-47.5 -19q-28 0 -47.5 19t-19.5 48z" />
<glyph unicode="&#xdd;" horiz-adv-x="1255" d="M41 1434h68l423 -523q13 -16 38 -46.5t41.5 -51t17.5 -20.5h2l94 118l422 523h67l-559 -686v-748h-55v748zM465 1567l405 219l29 -45l-410 -217z" />
<glyph unicode="&#xde;" horiz-adv-x="1185" d="M211 0v1434h55v-279h375q193 0 315.5 -120.5t122.5 -311.5q0 -190 -122 -310t-316 -120h-375v-293h-55zM266 346h375q169 0 276 105t107 272q0 169 -107 275t-276 104h-375v-756z" />
<glyph unicode="&#xdf;" horiz-adv-x="1499" d="M211 0v1434h1044l-268 -480q-12 -21 -35.5 -59t-41 -64.5t-17.5 -27.5l2 -2h16q228 1 358 -113t130 -303q0 -179 -128 -296.5t-327 -117.5q-156 0 -288 77t-193 208l53 18q57 -115 172.5 -182t257.5 -67q172 0 284.5 101.5t112.5 258.5q0 70 -25 134t-72.5 115.5 t-125 82.5t-174.5 31h-102v53l231 418q13 23 38 63t43 68.5t18 29.5l-3 2h-8q-8 0 -22 -0.5t-32.5 -1t-44.5 -0.5h-52h-746v-1380h-55z" />
<glyph unicode="&#xe0;" horiz-adv-x="1472" d="M61 0l654 1434h43l653 -1434h-59l-213 471h-805l-213 -471h-60zM356 522h760l-313 695q-12 28 -29.5 68t-26.5 61.5t-10 21.5h-2q-1 0 -10 -21.5t-25.5 -61t-29.5 -68.5zM442 1741l29 45l406 -219l-25 -43z" />
<glyph unicode="&#xe1;" horiz-adv-x="1472" d="M61 0l654 1434h43l653 -1434h-59l-213 471h-805l-213 -471h-60zM356 522h760l-313 695q-12 28 -29.5 68t-26.5 61.5t-10 21.5h-2q-1 0 -10 -21.5t-25.5 -61t-29.5 -68.5zM573 1567l406 219l29 -45l-410 -217z" />
<glyph unicode="&#xe2;" horiz-adv-x="1472" d="M61 0l654 1434h43l653 -1434h-59l-213 471h-805l-213 -471h-60zM356 522h760l-313 695q-12 28 -29.5 68t-26.5 61.5t-10 21.5h-2q-1 0 -10 -21.5t-25.5 -61t-29.5 -68.5zM434 1577l301 256l303 -256l-34 -37l-269 229l-266 -229z" />
<glyph unicode="&#xe3;" horiz-adv-x="1472" d="M61 0l654 1434h43l653 -1434h-59l-213 471h-805l-213 -471h-60zM356 522h760l-313 695q-12 28 -29.5 68t-26.5 61.5t-10 21.5h-2q-1 0 -10 -21.5t-25.5 -61t-29.5 -68.5zM444 1583q0 63 46 104.5t118 41.5q38 0 74.5 -17.5t60.5 -38t54.5 -38t58.5 -17.5q44 0 76 28.5 t33 71.5h51q2 -63 -44 -104t-118 -41q-35 0 -70.5 17.5t-60 39t-57 39t-62.5 17.5q-45 0 -75.5 -30t-30.5 -73h-54z" />
<glyph unicode="&#xe4;" horiz-adv-x="1472" d="M61 0l654 1434h43l653 -1434h-59l-213 471h-805l-213 -471h-60zM356 522h760l-313 695q-12 28 -29.5 68t-26.5 61.5t-10 21.5h-2q-1 0 -10 -21.5t-25.5 -61t-29.5 -68.5zM446 1630q0 27 18.5 46.5t47.5 19.5q28 0 48 -20t20 -46q0 -29 -20 -48t-48 -19q-29 0 -47.5 19 t-18.5 48zM885 1630q0 26 19.5 46t47.5 20q29 0 47.5 -19.5t18.5 -46.5q0 -29 -18.5 -48t-47.5 -19q-28 0 -47.5 19t-19.5 48z" />
<glyph unicode="&#xe5;" horiz-adv-x="1472" d="M61 0l652 1432q-63 7 -104.5 54.5t-41.5 112.5q0 72 49 121t121 49q70 0 121 -49.5t51 -120.5q0 -64 -43.5 -111.5t-105.5 -55.5l651 -1432h-59l-213 471h-805l-213 -471h-60zM356 522h760l-313 695q-12 28 -29.5 68t-26.5 61.5t-10 21.5h-2q-1 0 -10 -21.5t-25.5 -61 t-29.5 -68.5zM610 1599q0 -51 37.5 -87.5t89.5 -36.5q51 0 89 36.5t38 87.5q0 53 -37.5 89t-89.5 36q-53 0 -90 -36t-37 -89z" />
<glyph unicode="&#xe6;" horiz-adv-x="1984" d="M61 0l678 1434h1114v-54h-843v-575h690v-53h-690v-699h856v-53h-916v471h-606l-223 -471h-60zM369 522h581v858h-180q-1 0 -20 -42t-50 -110t-49 -106z" />
<glyph unicode="&#xe7;" horiz-adv-x="1566" d="M100 717q0 159 58.5 298t158.5 237t237 154t290 56q208 0 380.5 -100t270.5 -272l-55 -15q-88 156 -246 245t-350 89q-143 0 -269 -50t-218.5 -139.5t-146.5 -219.5t-54 -283q0 -200 92 -359t249 -246t347 -87q202 0 366.5 101.5t251.5 274.5l54 -16q-91 -192 -270 -303 t-402 -111h-2l-27 -65q94 1 149.5 -46t55.5 -126q0 -74 -54.5 -121t-144.5 -47h-82l21 47h61q67 0 108.5 33t41.5 88q0 56 -42 91.5t-108 35.5h-73l40 112q-143 10 -269.5 70t-219 156.5t-146 231t-53.5 286.5z" />
<glyph unicode="&#xe8;" horiz-adv-x="1243" d="M211 0v1434h901v-54h-846v-575h688v-53h-688v-699h858v-53h-913zM352 1741l29 45l405 -219l-24 -43z" />
<glyph unicode="&#xe9;" horiz-adv-x="1243" d="M211 0v1434h901v-54h-846v-575h688v-53h-688v-699h858v-53h-913zM483 1567l406 219l29 -45l-410 -217z" />
<glyph unicode="&#xea;" horiz-adv-x="1243" d="M211 0v1434h901v-54h-846v-575h688v-53h-688v-699h858v-53h-913zM344 1577l301 256l303 -256l-35 -37l-268 229l-266 -229z" />
<glyph unicode="&#xeb;" horiz-adv-x="1243" d="M211 0v1434h901v-54h-846v-575h688v-53h-688v-699h858v-53h-913zM356 1630q0 27 18.5 46.5t47.5 19.5q28 0 47.5 -20t19.5 -46q0 -29 -19.5 -48t-47.5 -19q-29 0 -47.5 19t-18.5 48zM795 1630q0 26 19.5 46t47.5 20q29 0 47.5 -19.5t18.5 -46.5q0 -29 -18.5 -48 t-47.5 -19q-28 0 -47.5 19t-19.5 48z" />
<glyph unicode="&#xec;" horiz-adv-x="477" d="M-55 1741l28 45l406 -219l-25 -43zM211 0v1434h55v-1434h-55z" />
<glyph unicode="&#xed;" horiz-adv-x="477" d="M76 1567l405 219l29 -45l-410 -217zM211 0v1434h55v-1434h-55z" />
<glyph unicode="&#xee;" horiz-adv-x="477" d="M-63 1577l301 256l303 -256l-35 -37l-268 229l-267 -229zM211 0v1434h55v-1434h-55z" />
<glyph unicode="&#xef;" horiz-adv-x="477" d="M-51 1630q0 27 18.5 46.5t46.5 19.5t48 -20t20 -46q0 -29 -20 -48t-48 -19q-29 0 -47 19t-18 48zM211 0v1434h55v-1434h-55zM387 1630q0 26 20 46t48 20t46.5 -19.5t18.5 -46.5q0 -29 -18 -48t-47 -19q-28 0 -48 19t-20 48z" />
<glyph unicode="&#xf0;" horiz-adv-x="1640" d="M100 707v53h109v674h588q153 0 289 -53.5t236.5 -147.5t159 -230t58.5 -294q0 -205 -98.5 -368.5t-263 -252t-361.5 -88.5h-608v707h-109zM264 53h553q134 0 255.5 46t213 129t145.5 208t54 273q0 151 -54.5 278t-147.5 212.5t-218.5 133t-267.5 47.5h-533v-620h457v-53 h-457v-654z" />
<glyph unicode="&#xf1;" horiz-adv-x="1525" d="M211 0v1434h51l848 -1139l154 -207h2q1 0 -0.5 42t-3.5 125t-2 157v1022h55v-1434h-51l-854 1149q-52 70 -90 123.5t-47.5 67.5t-10.5 14h-2q-1 0 0.5 -42t3.5 -125.5t2 -158.5v-1028h-55zM475 1583q0 63 46 104.5t118 41.5q38 0 74.5 -17.5t60.5 -38t54.5 -38 t58.5 -17.5q44 0 75.5 28.5t32.5 71.5h52q2 -63 -44 -104t-118 -41q-35 0 -70.5 17.5t-60 39t-57 39t-62.5 17.5q-45 0 -76 -30t-31 -73h-53z" />
<glyph unicode="&#xf2;" d="M100 717q0 159 58.5 298t158.5 237t237 154t290 56t290 -56t237 -154t159 -237t59 -298q0 -212 -100 -383.5t-270.5 -267t-374.5 -95.5q-153 0 -290 56.5t-237 154t-158.5 237t-58.5 298.5zM156 717q0 -201 92 -360t248.5 -245.5t347.5 -86.5q190 0 347 86.5t250 246 t93 359.5q0 153 -54.5 283.5t-147.5 219.5t-219.5 139t-268.5 50q-143 0 -269 -50t-218.5 -139.5t-146.5 -219.5t-54 -283zM555 1741l29 45l405 -219l-24 -43z" />
<glyph unicode="&#xf3;" d="M100 717q0 159 58.5 298t158.5 237t237 154t290 56t290 -56t237 -154t159 -237t59 -298q0 -212 -100 -383.5t-270.5 -267t-374.5 -95.5q-153 0 -290 56.5t-237 154t-158.5 237t-58.5 298.5zM156 717q0 -201 92 -360t248.5 -245.5t347.5 -86.5q190 0 347 86.5t250 246 t93 359.5q0 153 -54.5 283.5t-147.5 219.5t-219.5 139t-268.5 50q-143 0 -269 -50t-218.5 -139.5t-146.5 -219.5t-54 -283zM686 1567l406 219l28 -45l-409 -217z" />
<glyph unicode="&#xf4;" d="M100 717q0 159 58.5 298t158.5 237t237 154t290 56t290 -56t237 -154t159 -237t59 -298q0 -212 -100 -383.5t-270.5 -267t-374.5 -95.5q-153 0 -290 56.5t-237 154t-158.5 237t-58.5 298.5zM156 717q0 -201 92 -360t248.5 -245.5t347.5 -86.5q190 0 347 86.5t250 246 t93 359.5q0 153 -54.5 283.5t-147.5 219.5t-219.5 139t-268.5 50q-143 0 -269 -50t-218.5 -139.5t-146.5 -219.5t-54 -283zM547 1577l301 256l303 -256l-35 -37l-268 229l-266 -229z" />
<glyph unicode="&#xf5;" d="M100 717q0 159 58.5 298t158.5 237t237 154t290 56t290 -56t237 -154t159 -237t59 -298q0 -212 -100 -383.5t-270.5 -267t-374.5 -95.5q-153 0 -290 56.5t-237 154t-158.5 237t-58.5 298.5zM156 717q0 -201 92 -360t248.5 -245.5t347.5 -86.5q190 0 347 86.5t250 246 t93 359.5q0 153 -54.5 283.5t-147.5 219.5t-219.5 139t-268.5 50q-143 0 -269 -50t-218.5 -139.5t-146.5 -219.5t-54 -283zM557 1583q0 63 46 104.5t118 41.5q38 0 74.5 -17.5t60.5 -38t54.5 -38t58.5 -17.5q44 0 75.5 28.5t32.5 71.5h51q2 -63 -43.5 -104t-117.5 -41 q-35 0 -70.5 17.5t-60 39t-57 39t-62.5 17.5q-45 0 -76 -30t-31 -73h-53z" />
<glyph unicode="&#xf6;" d="M100 717q0 159 58.5 298t158.5 237t237 154t290 56t290 -56t237 -154t159 -237t59 -298q0 -212 -100 -383.5t-270.5 -267t-374.5 -95.5q-153 0 -290 56.5t-237 154t-158.5 237t-58.5 298.5zM156 717q0 -201 92 -360t248.5 -245.5t347.5 -86.5q190 0 347 86.5t250 246 t93 359.5q0 153 -54.5 283.5t-147.5 219.5t-219.5 139t-268.5 50q-143 0 -269 -50t-218.5 -139.5t-146.5 -219.5t-54 -283zM559 1630q0 27 18.5 46.5t47.5 19.5q27 0 47 -20t20 -46q0 -29 -19.5 -48t-47.5 -19q-29 0 -47.5 19t-18.5 48zM997 1630q0 26 20 46t48 20 t46.5 -19.5t18.5 -46.5q0 -29 -18 -48t-47 -19q-28 0 -48 19t-20 48z" />
<glyph unicode="&#xf7;" horiz-adv-x="1429" d="M223 702v54h961v-54h-961zM635 285q0 27 18 45t45 18q28 0 46 -18t18 -45t-18.5 -45.5t-45.5 -18.5t-45 18.5t-18 45.5zM635 1184q0 27 18 45t45 18q28 0 46 -18.5t18 -44.5q0 -27 -18.5 -45.5t-45.5 -18.5t-45 18.5t-18 45.5z" />
<glyph unicode="&#xf8;" d="M100 717q0 159 58.5 298t158.5 237t237 154t290 56q245 0 438 -135l84 111l39 -29l-84 -113q126 -102 197 -251.5t71 -327.5q0 -212 -100 -383.5t-270.5 -267t-374.5 -95.5q-238 0 -430 131l-78 -104l-39 31l78 102q-129 102 -202 253.5t-73 332.5zM156 717 q0 -170 66 -310.5t184 -234.5l845 1114q-181 123 -407 123q-143 0 -269 -50t-218.5 -139.5t-146.5 -219.5t-54 -283zM446 143q172 -118 398 -118q190 0 347 86.5t250 246t93 359.5q0 169 -64.5 307t-179.5 231z" />
<glyph unicode="&#xf9;" horiz-adv-x="1447" d="M164 567v867h55v-875q0 -265 127 -400.5t377 -135.5q251 0 378.5 135.5t127.5 400.5v875h55v-867q0 -293 -142 -445.5t-419 -152.5t-418 152.5t-141 445.5zM436 1741l29 45l405 -219l-24 -43z" />
<glyph unicode="&#xfa;" horiz-adv-x="1447" d="M164 567v867h55v-875q0 -265 127 -400.5t377 -135.5q251 0 378.5 135.5t127.5 400.5v875h55v-867q0 -293 -142 -445.5t-419 -152.5t-418 152.5t-141 445.5zM567 1567l406 219l28 -45l-409 -217z" />
<glyph unicode="&#xfb;" horiz-adv-x="1447" d="M164 567v867h55v-875q0 -265 127 -400.5t377 -135.5q251 0 378.5 135.5t127.5 400.5v875h55v-867q0 -293 -142 -445.5t-419 -152.5t-418 152.5t-141 445.5zM428 1577l301 256l303 -256l-35 -37l-268 229l-266 -229z" />
<glyph unicode="&#xfc;" horiz-adv-x="1447" d="M164 567v867h55v-875q0 -265 127 -400.5t377 -135.5q251 0 378.5 135.5t127.5 400.5v875h55v-867q0 -293 -142 -445.5t-419 -152.5t-418 152.5t-141 445.5zM440 1630q0 27 18.5 46.5t47.5 19.5q28 0 47.5 -20t19.5 -46q0 -29 -19.5 -48t-47.5 -19q-29 0 -47.5 19 t-18.5 48zM879 1630q0 26 19.5 46t47.5 20q29 0 47.5 -19.5t18.5 -46.5q0 -29 -18.5 -48t-47.5 -19q-28 0 -47.5 19t-19.5 48z" />
<glyph unicode="&#xfd;" horiz-adv-x="1255" d="M41 1434h68l423 -523q13 -16 38 -46.5t41.5 -51t17.5 -20.5h2l94 118l422 523h67l-559 -686v-748h-55v748zM465 1567l405 219l29 -45l-410 -217z" />
<glyph unicode="&#xfe;" horiz-adv-x="1185" d="M211 0v1434h55v-279h375q193 0 315.5 -120.5t122.5 -311.5q0 -190 -122 -310t-316 -120h-375v-293h-55zM266 346h375q169 0 276 105t107 272q0 169 -107 275t-276 104h-375v-756z" />
<glyph unicode="&#xff;" horiz-adv-x="1255" d="M41 1434h68l423 -523q13 -16 38 -46.5t41.5 -51t17.5 -20.5h2l94 118l422 523h67l-559 -686v-748h-55v748zM338 1630q0 27 18.5 46.5t46.5 19.5t48 -20t20 -46q0 -29 -20 -48t-48 -19q-29 0 -47 19t-18 48zM776 1630q0 26 20 46t48 20t46.5 -19.5t18.5 -46.5 q0 -29 -18 -48t-47 -19q-28 0 -48 19t-20 48z" />
<glyph unicode="&#x152;" horiz-adv-x="1970" d="M100 717q0 212 94.5 378t259 256.5t369.5 90.5q65 0 117 -8h899v-54h-846v-575h688v-53h-688v-699h858v-53h-909q-52 -8 -119 -8q-205 0 -369.5 90.5t-259 256.5t-94.5 378zM156 717q0 -201 87 -355t238 -235.5t342 -81.5q66 0 115 8v1327q-55 9 -115 9 q-192 0 -342.5 -80.5t-237.5 -234t-87 -357.5z" />
<glyph unicode="&#x153;" horiz-adv-x="1970" d="M100 717q0 212 94.5 378t259 256.5t369.5 90.5q65 0 117 -8h899v-54h-846v-575h688v-53h-688v-699h858v-53h-909q-52 -8 -119 -8q-205 0 -369.5 90.5t-259 256.5t-94.5 378zM156 717q0 -201 87 -355t238 -235.5t342 -81.5q66 0 115 8v1327q-55 9 -115 9 q-192 0 -342.5 -80.5t-237.5 -234t-87 -357.5z" />
<glyph unicode="&#x178;" horiz-adv-x="1255" d="M41 1434h68l423 -523q13 -16 38 -46.5t41.5 -51t17.5 -20.5h2l94 118l422 523h67l-559 -686v-748h-55v748zM338 1630q0 27 18.5 46.5t46.5 19.5t48 -20t20 -46q0 -29 -20 -48t-48 -19q-29 0 -47 19t-18 48zM776 1630q0 26 20 46t48 20t46.5 -19.5t18.5 -46.5 q0 -29 -18 -48t-47 -19q-28 0 -48 19t-20 48z" />
<glyph unicode="&#x2c6;" horiz-adv-x="780" d="M90 1577l303 256l301 -256l-35 -37l-266 229l-268 -229z" />
<glyph unicode="&#x2dc;" horiz-adv-x="747" d="M90 1583q0 63 46 104.5t118 41.5q38 0 74.5 -17.5t60.5 -38t54.5 -38t58.5 -17.5q44 0 74 28.5t32 71.5h54q2 -63 -44.5 -104t-119.5 -41q-34 0 -69 17.5t-59.5 39t-57 39t-62.5 17.5q-46 0 -77.5 -30t-31.5 -73h-51z" />
<glyph unicode="&#x2000;" horiz-adv-x="916" />
<glyph unicode="&#x2001;" horiz-adv-x="1833" />
<glyph unicode="&#x2002;" horiz-adv-x="916" />
<glyph unicode="&#x2003;" horiz-adv-x="1833" />
<glyph unicode="&#x2004;" horiz-adv-x="611" />
<glyph unicode="&#x2005;" horiz-adv-x="458" />
<glyph unicode="&#x2006;" horiz-adv-x="305" />
<glyph unicode="&#x2007;" horiz-adv-x="305" />
<glyph unicode="&#x2008;" horiz-adv-x="229" />
<glyph unicode="&#x2009;" horiz-adv-x="366" />
<glyph unicode="&#x200a;" horiz-adv-x="101" />
<glyph unicode="&#x2010;" horiz-adv-x="1382" d="M211 702v54h960v-54h-960z" />
<glyph unicode="&#x2011;" horiz-adv-x="1382" d="M211 702v54h960v-54h-960z" />
<glyph unicode="&#x2012;" horiz-adv-x="1382" d="M211 702v54h960v-54h-960z" />
<glyph unicode="&#x2013;" horiz-adv-x="1247" d="M211 700v54h825v-54h-825z" />
<glyph unicode="&#x2014;" horiz-adv-x="2068" d="M211 700v54h1647v-54h-1647z" />
<glyph unicode="&#x2018;" horiz-adv-x="575" d="M211 1176q0 150 113 286h41q-91 -109 -91 -231l-14 -10h14q27 3 49.5 -15.5t22.5 -50.5q0 -29 -20.5 -46t-49.5 -17q-28 0 -46.5 23.5t-18.5 60.5z" />
<glyph unicode="&#x2019;" horiz-adv-x="575" d="M211 1092q90 108 90 231l14 10h-14q-27 -3 -49.5 15.5t-22.5 50.5q0 29 20.5 46t49.5 17q28 0 47 -24t19 -60q0 -150 -113 -286h-41z" />
<glyph unicode="&#x201a;" horiz-adv-x="575" d="M211 -270q90 108 90 231l14 10h-14q-27 -3 -49.5 15.5t-22.5 50.5q0 29 20.5 46t49.5 17q28 0 47 -24t19 -60q0 -150 -113 -286h-41z" />
<glyph unicode="&#x201c;" horiz-adv-x="890" d="M211 1176q0 150 113 286h41q-91 -109 -91 -231l-14 -10h14q27 3 49.5 -15.5t22.5 -50.5q0 -29 -20.5 -46t-49.5 -17q-28 0 -46.5 23.5t-18.5 60.5zM526 1176q0 150 113 286h41q-90 -108 -90 -231l-15 -10h15q27 3 49.5 -15.5t22.5 -50.5q0 -29 -20.5 -46t-49.5 -17 q-28 0 -47 24t-19 60z" />
<glyph unicode="&#x201d;" horiz-adv-x="890" d="M211 1092q90 108 90 231l14 10h-14q-27 -3 -49.5 15.5t-22.5 50.5q0 29 20.5 46t49.5 17q28 0 47 -24t19 -60q0 -150 -113 -286h-41zM526 1092q90 108 90 231l15 10h-15q-27 -3 -49 15.5t-22 50.5q0 30 20 46.5t49 16.5q28 0 47 -24t19 -60q0 -150 -113 -286h-41z" />
<glyph unicode="&#x201e;" horiz-adv-x="845" d="M211 -270q90 108 90 231l14 10h-14q-27 -3 -49.5 15.5t-22.5 50.5q0 29 20.5 46t49.5 17q28 0 47 -24t19 -60q0 -150 -113 -286h-41zM481 -270q90 108 90 231l15 10h-15q-27 -3 -49 15.5t-22 50.5q0 30 20 46.5t49 16.5q28 0 47 -24t19 -60q0 -150 -113 -286h-41z" />
<glyph unicode="&#x2022;" horiz-adv-x="729" d="M211 727q0 65 44.5 109.5t109.5 44.5q64 0 108.5 -44.5t44.5 -109.5t-44.5 -109.5t-108.5 -44.5q-65 0 -109.5 44.5t-44.5 109.5z" />
<glyph unicode="&#x2026;" horiz-adv-x="1435" d="M123 23q0 23 15.5 37t37.5 14q23 0 37 -14.5t14 -36.5q0 -23 -14.5 -38.5t-36.5 -15.5q-23 0 -38 16t-15 38zM655 23q0 23 16 37t38 14q23 0 37 -14.5t14 -36.5q0 -23 -14.5 -38.5t-36.5 -15.5q-23 0 -38.5 16t-15.5 38zM1208 23q0 23 16 37t38 14q23 0 37 -14.5 t14 -36.5q0 -23 -14.5 -38.5t-36.5 -15.5q-23 0 -38.5 16t-15.5 38z" />
<glyph unicode="&#x202f;" horiz-adv-x="366" />
<glyph unicode="&#x2039;" horiz-adv-x="942" d="M211 721l481 479l39 -37l-446 -442l446 -442l-39 -37z" />
<glyph unicode="&#x203a;" horiz-adv-x="942" d="M211 279l446 442l-446 442l39 37l481 -479l-481 -479z" />
<glyph unicode="&#x205f;" horiz-adv-x="458" />
<glyph unicode="&#x20ac;" horiz-adv-x="1638" d="M100 608v54h82q-2 18 -2 55q0 33 2 49h-82v53h86q23 186 126 332t262 226.5t346 80.5q207 0 379 -99.5t268 -271.5l-60 -16q-88 156 -242.5 244t-344.5 88q-174 0 -319.5 -71t-241 -204.5t-117.5 -308.5h702v-53h-706q-2 -16 -2 -49q0 -37 2 -55h706v-54h-700 q23 -171 118 -303t240.5 -203t317.5 -71q202 0 365 100t247 272l55 -16q-90 -191 -267.5 -301.5t-399.5 -110.5q-283 0 -489 177.5t-243 455.5h-88z" />
<glyph unicode="&#x2122;" horiz-adv-x="1605" d="M61 1382v52h564v-52h-256v-614h-54v614h-254zM762 768v666h53l207 -359q17 -28 30.5 -54.5t18.5 -37t6 -10.5h2q1 0 6 10t19 36t31 54l206 361h54v-666h-56v322q0 51 3 117.5t6 105.5t2 39h-2q-1 0 -7.5 -13.5t-21.5 -43.5t-33 -60l-188 -313h-39l-189 313q-18 30 -33 60 t-21 43.5t-7 13.5h-2q-1 0 1.5 -39t5.5 -105.5t3 -117.5v-322h-55z" />
</font>
</defs>
</svg>
