<?xml version="1.0" standalone="no"?>
<!DOCTYPE svg PUBLIC "-//W3C//DTD SVG 1.1//EN" "http://www.w3.org/Graphics/SVG/1.1/DTD/svg11.dtd" >
<svg xmlns="http://www.w3.org/2000/svg">
<metadata></metadata>
<defs>
<font id="NovecentowideNormalBold" horiz-adv-x="1622" >
<font-face units-per-em="2048" ascent="1741" descent="-307" />
<missing-glyph horiz-adv-x="512" />
<glyph horiz-adv-x="0" />
<glyph horiz-adv-x="2048" />
<glyph unicode=" "  horiz-adv-x="512" />
<glyph unicode="&#x09;" horiz-adv-x="512" />
<glyph unicode="&#xa0;" horiz-adv-x="512" />
<glyph unicode="!" horiz-adv-x="694" d="M152 0v322h393v-322h-393zM152 432v1002h393v-1002h-393z" />
<glyph unicode="&#x22;" horiz-adv-x="1329" d="M152 989v445h364v-445h-364zM813 989v445h367v-445h-367z" />
<glyph unicode="#" horiz-adv-x="1953" d="M53 244l183 342h153l125 243h-162l180 342h158l133 263h377l-129 -263h242l133 263h377l-129 -263h194l-178 -342h-182l-119 -243h180l-178 -342h-170l-119 -244h-409l125 244h-220l-118 -244h-410l125 244h-162zM786 586h226l125 243h-232z" />
<glyph unicode="$" horiz-adv-x="1267" d="M33 410l377 100q35 -78 103.5 -134.5t158.5 -56.5q69 0 102 25.5t33 65.5q0 25 -15 45t-51 38.5t-70 31.5t-100.5 36.5t-113.5 42.5q-61 25 -105.5 46.5t-96.5 59t-84.5 79t-54.5 103t-22 134.5q0 135 102.5 251t266.5 161v180h393v-193q129 -45 223.5 -140t134.5 -218 l-378 -104q-26 80 -88 120.5t-130 40.5q-56 0 -87 -22.5t-31 -50.5q0 -16 7 -30.5t23 -27t33 -22.5t47.5 -22.5t54.5 -21.5t65 -24t69 -26q89 -34 158.5 -72.5t133.5 -92.5t99 -126.5t35 -157.5q0 -157 -99.5 -272t-269.5 -160v-180h-393v180q-149 41 -258.5 147t-171.5 267 z" />
<glyph unicode="%" horiz-adv-x="1796" d="M18 1038q0 180 101.5 296t261.5 116q159 0 259.5 -116t100.5 -296q0 -181 -100.5 -296t-259.5 -115q-161 0 -262 115t-101 296zM252 0l1042 1434h248l-1042 -1434h-248zM272 1038q0 -65 30.5 -110t78.5 -45t78 45t30 110q0 66 -30 111t-78 45t-78.5 -45t-30.5 -111z M1053 393q0 181 101 297.5t261 116.5q159 0 260 -116.5t101 -297.5q0 -179 -101 -294t-260 -115q-160 0 -261 115t-101 294zM1307 393q0 -65 30 -109t78 -44t78.5 44t30.5 109q0 66 -30.5 112t-78.5 46t-78 -46t-30 -112z" />
<glyph unicode="&#x26;" horiz-adv-x="1452" d="M68 432q0 112 77.5 199t190.5 104v2q-41 5 -84 26t-82 56t-63.5 91t-24.5 122q0 192 144 311t384 119q210 0 348 -107.5t189 -293.5l-330 -90q-35 88 -75 125t-119 37q-67 0 -99 -36t-32 -79q0 -59 39.5 -96t123.5 -37h807v-305h-248v-109q0 -77 -20.5 -148t-66 -136 t-112.5 -112.5t-166.5 -75.5t-221.5 -28q-253 0 -406 127t-153 334zM451 442q0 -57 50 -96t126 -39q105 0 162 42t57 145v86h-219q-92 0 -134 -38.5t-42 -99.5z" />
<glyph unicode="'" horiz-adv-x="667" d="M152 989v445h364v-445h-364z" />
<glyph unicode="(" horiz-adv-x="827" d="M66 696q0 127 16.5 239t43 196t66.5 157t80.5 123.5t91.5 94t93 69.5t92 48.5t80.5 33t66.5 21.5q1 0 2 0.5t2 0.5l97 -374q-97 -28 -164 -82t-104.5 -134t-53.5 -174.5t-16 -218.5q0 -123 16 -217.5t53.5 -174t104.5 -133.5t164 -81l-97 -377q-152 47 -247 107 q-387 245 -387 876z" />
<glyph unicode=")" horiz-adv-x="825" d="M29 90q97 27 164 81t104.5 133.5t53.5 174t16 217.5q0 124 -16 218.5t-53.5 174.5t-104.5 134t-164 82l96 374q152 -47 246 -107q389 -245 389 -876q0 -162 -27 -299t-68 -230.5t-101 -170t-115 -121.5t-121.5 -80.5t-109.5 -51t-88 -29.5q-4 -1 -5 -1z" />
<glyph unicode="*" horiz-adv-x="1032" d="M152 1075l73 232l168 -58v185h242v-185l172 58l74 -232l-176 -49l114 -145l-198 -146l-105 156l-102 -156l-201 144l115 147z" />
<glyph unicode="+" horiz-adv-x="1429" d="M254 565v320h291v313h340v-313h293v-320h-291v-309h-340v309h-293z" />
<glyph unicode="," horiz-adv-x="600" d="M84 -270q54 31 110 120t56 136l33 8l-33 4q-49 8 -88 51t-39 109q0 72 51.5 124t126.5 52q74 0 125 -55t51 -142q0 -95 -72.5 -208t-181.5 -199h-139z" />
<glyph unicode="-" horiz-adv-x="1224" d="M152 565v320h921v-320h-921z" />
<glyph unicode="." horiz-adv-x="600" d="M123 156q0 72 52 123t126 51q72 0 124 -51t52 -123q0 -75 -51.5 -128t-124.5 -53q-74 0 -126 53t-52 128z" />
<glyph unicode="/" horiz-adv-x="1089" d="M-10 0l733 1434h377l-701 -1434h-409z" />
<glyph unicode="0" horiz-adv-x="1468" d="M68 717q0 156 46.5 292t131 236.5t210.5 158.5t277 58t277.5 -58t211.5 -158.5t132 -236.5t47 -292q0 -209 -80 -377.5t-233.5 -268.5t-354.5 -100q-151 0 -277 58t-210.5 159t-131 237t-46.5 292zM477 717q0 -167 61.5 -262t194.5 -95q131 0 194.5 96t63.5 261 t-63.5 260.5t-194.5 95.5q-133 0 -194.5 -95t-61.5 -261z" />
<glyph unicode="1" horiz-adv-x="995" d="M68 926l503 508h275v-1434h-393v612q0 43 2 105.5t3.5 101.5t0.5 39h-2q-1 0 -15.5 -18t-44 -51.5t-59.5 -63.5l-31 -31z" />
<glyph unicode="2" horiz-adv-x="1275" d="M111 1059q53 175 196 289t352 114q234 0 382.5 -135t148.5 -336q0 -55 -11.5 -105t-27 -88t-46 -78t-54.5 -66t-68.5 -61.5t-71 -54t-77.5 -53.5q-44 -31 -94.5 -62.5t-78.5 -47.5t-28 -17l2 -2h9q10 1 28 2t42.5 2.5t58 2.5t70.5 2t83.5 1.5t93.5 0.5h172v-367h-1069 v322q294 263 569 512q99 83 99 157q0 49 -39.5 87t-104.5 38q-39 0 -70 -15.5t-52 -44t-31 -47t-21 -46.5z" />
<glyph unicode="3" horiz-adv-x="1267" d="M68 365l354 98q62 -141 209 -141q62 0 111 33.5t49 95.5q0 55 -47 92t-121 37h-119v305h119q70 0 105.5 34t35.5 80q0 58 -41 87.5t-102 29.5q-64 0 -107 -34.5t-76 -118.5l-350 94q50 186 198.5 295.5t360.5 109.5q239 0 381.5 -120.5t142.5 -313.5q0 -65 -27.5 -121.5 t-69 -91t-85.5 -54.5t-82 -22v-2q117 2 205 -82.5t88 -224.5q0 -199 -155 -329t-398 -130q-205 0 -369.5 113.5t-209.5 280.5z" />
<glyph unicode="4" horiz-adv-x="1363" d="M68 229v297l747 908h324v-865h141v-340h-141v-229h-369v229h-702zM510 567q1 0 20.5 0.5t55.5 1t78 0.5h106q0 29 0.5 62.5t1 64.5l1 62t1 56t1 44.5t1.5 31.5v11h-2q-1 0 -23.5 -30t-56 -74t-55.5 -70l-66 -76q-63 -80 -63 -82v-2z" />
<glyph unicode="5" horiz-adv-x="1288" d="M111 326l360 94q12 -22 20.5 -34.5t29.5 -34.5t51.5 -33t70.5 -11q71 0 117.5 48.5t46.5 121.5t-48.5 119.5t-115.5 46.5q-118 0 -147 -80l-338 92l129 779h829v-367h-549q-30 -125 -30 -131l2 -2q31 8 120 8q152 0 276.5 -60t196.5 -168t72 -243q0 -141 -71 -255.5 t-196 -179.5t-278 -65q-105 0 -200.5 30.5t-164.5 81t-116.5 113.5t-66.5 130z" />
<glyph unicode="6" horiz-adv-x="1245" d="M68 479q0 70 14.5 137.5t35.5 122t60 120t73.5 114t90.5 121.5l254 340h422l-359 -482q5 -3 9 0.5t19.5 9t43.5 5.5q112 0 204.5 -42t151.5 -113t91 -163t32 -194q0 -142 -75.5 -253t-206 -171t-291.5 -60q-116 0 -219 34.5t-181 97.5t-123.5 160.5t-45.5 215.5zM465 479 q0 -72 53.5 -118t132.5 -46q82 0 134.5 47t50.5 117q0 74 -53 121t-132 47q-84 0 -135 -47.5t-51 -120.5z" />
<glyph unicode="7" horiz-adv-x="1191" d="M59 1067v367h1119v-226l-676 -1208h-422l391 686q46 81 105.5 176.5t95.5 151.5l37 55l-2 2l-15 -1q-15 0 -38 -0.5t-49.5 -1t-56 -1t-50.5 -0.5h-439z" />
<glyph unicode="8" horiz-adv-x="1239" d="M68 412q0 68 24 129.5t63.5 104.5t84.5 72.5t92 43.5v2q-64 15 -131.5 103.5t-67.5 205.5q0 167 137.5 278t347.5 111q211 0 349.5 -111t138.5 -278q0 -117 -67.5 -205.5t-131.5 -103.5v-2q102 -32 183 -126t81 -224q0 -122 -71.5 -223t-198.5 -160t-283 -60 q-117 1 -219.5 36t-175 94t-114 140.5t-41.5 172.5zM440 424q0 -65 51.5 -107.5t126.5 -42.5q78 0 129.5 43.5t51.5 106.5q0 65 -52.5 108t-128.5 43q-77 0 -127.5 -44t-50.5 -107zM463 1053q0 -54 44.5 -88.5t110.5 -34.5q69 0 113.5 35.5t44.5 87.5q0 59 -44.5 95 t-113.5 36q-68 0 -111.5 -37.5t-43.5 -93.5z" />
<glyph unicode="9" horiz-adv-x="1245" d="M35 971q0 147 75.5 260t205 172t292.5 59q116 0 219.5 -35.5t181.5 -100t123.5 -161t45.5 -211.5q0 -286 -228 -553l-342 -401h-446l422 477l-2 2q-10 -12 -64 -12q-120 0 -214 40.5t-152 110.5t-87.5 160t-29.5 193zM414 952q0 -71 51.5 -119.5t132.5 -48.5 q83 0 133.5 49t50.5 119q0 69 -50.5 116.5t-133.5 47.5q-84 0 -134 -48t-50 -116z" />
<glyph unicode=":" horiz-adv-x="600" d="M123 156q0 72 52 123t126 51q72 0 124 -51t52 -123q0 -75 -51.5 -128t-124.5 -53q-74 0 -126 53t-52 128zM123 737q0 72 52 123t126 51q72 0 124 -51t52 -123q0 -75 -51.5 -127.5t-124.5 -52.5q-74 0 -126 52.5t-52 127.5z" />
<glyph unicode=";" horiz-adv-x="638" d="M123 -268q54 31 110 120t56 136l33 8l-33 4q-49 8 -88 51t-39 109q0 72 52 124t126 52t125 -55t51 -142q0 -95 -72.5 -208t-181.5 -199h-139zM164 737q0 72 52 123t126 51q72 0 124 -51t52 -123q0 -75 -51.5 -127.5t-124.5 -52.5q-74 0 -126 52.5t-52 127.5z" />
<glyph unicode="&#x3c;" horiz-adv-x="1429" d="M240 752l487 499h436l-450 -499l450 -502h-436z" />
<glyph unicode="=" horiz-adv-x="1429" d="M254 281v319h924v-319h-924zM254 803v319h924v-319h-924z" />
<glyph unicode="&#x3e;" horiz-adv-x="1429" d="M266 250l451 502l-451 499h436l488 -499l-488 -502h-436z" />
<glyph unicode="?" horiz-adv-x="1218" d="M68 1055q46 186 195.5 296.5t361.5 110.5q238 0 382 -120.5t144 -309.5q0 -69 -18.5 -126.5t-43.5 -96.5t-75 -81.5t-87 -67t-105 -66.5q-5 -3 -8 -4.5t-7 -4.5t-8 -5v-148h-393v283q35 23 77 50.5t66.5 43.5t54 35.5t45.5 31.5t34 27t27 25.5t17 24t11 26t3 27.5 q0 39 -34 76.5t-99 37.5q-81 0 -130.5 -35.5t-82.5 -121.5zM406 0v322h393v-322h-393z" />
<glyph unicode="@" horiz-adv-x="1648" d="M68 702q0 162 56.5 303t155.5 241.5t239 158t302 57.5q163 0 304.5 -57.5t242 -158t158 -241.5t57.5 -303q0 -57 -11 -114.5t-38 -117.5t-68 -106t-106.5 -75t-147.5 -29q-83 0 -153.5 48.5t-89.5 113.5l-2 2q-21 -51 -90.5 -100.5t-143.5 -49.5q-163 0 -260.5 113 t-97.5 301q0 186 105.5 299t277.5 113q61 0 105.5 -31.5t60.5 -58.5h2v59h245v-483q0 -73 16.5 -109.5t63.5 -36.5q34 0 56.5 23.5t32.5 66.5t13 81.5t3 90.5q0 240 -151 396.5t-384 156.5q-230 0 -380 -157t-150 -396q0 -235 150 -387.5t380 -152.5q62 0 115.5 8t86 19 t55.5 22t35.5 18t16.5 7l168 -82q1 -5 -16.5 -24t-57 -46.5t-92.5 -52.5t-136 -42.5t-175 -17.5q-216 0 -388 94t-268.5 261t-96.5 376zM659 696q3 -84 45.5 -119.5t92.5 -35.5q16 0 35 6.5t41 21t37 44.5t16 71q-1 50 -15 84.5t-37 49.5t-41 20.5t-36 5.5q-49 0 -94 -36.5 t-44 -111.5z" />
<glyph unicode="A" horiz-adv-x="1472" d="M-10 0l559 1434h375l559 -1434h-424l-64 184h-518l-63 -184h-424zM594 526h285l-72 209q-13 36 -30.5 92t-28 92.5t-11.5 36.5h-2q-1 0 -11.5 -36.5t-27.5 -92.5t-30 -92z" />
<glyph unicode="B" horiz-adv-x="1359" d="M152 0v1434h645q192 0 316 -113t124 -274q0 -93 -49.5 -171.5t-112.5 -105.5v-2q98 -30 164 -129.5t66 -200.5q0 -92 -30.5 -169.5t-91.5 -138.5t-163.5 -95.5t-237.5 -34.5h-630zM545 330h196q70 0 111 36t41 93q0 61 -41 95t-109 34h-198v-258zM545 885h170 q55 0 91 30.5t36 79.5q0 46 -36.5 77.5t-90.5 31.5h-170v-219z" />
<glyph unicode="C" horiz-adv-x="1540" d="M68 717q0 159 58.5 298t158 237t236.5 154t290 56q209 0 381.5 -104t269.5 -279l-401 -104q-42 44 -112.5 71t-137.5 27q-156 0 -245 -99t-89 -257q0 -163 92 -257.5t242 -94.5q84 0 161.5 37.5t114.5 95.5l400 -103q-90 -193 -271.5 -308.5t-404.5 -115.5 q-204 0 -374 95.5t-269.5 267t-99.5 383.5z" />
<glyph unicode="D" horiz-adv-x="1591" d="M152 0v1434h632q204 0 373 -90t269 -256.5t100 -376.5q0 -158 -58.5 -292.5t-159.5 -225.5t-237.5 -142t-290.5 -51h-628zM545 367h235q141 0 238.5 93t97.5 251t-97.5 257t-234.5 99h-239v-700z" />
<glyph unicode="E" horiz-adv-x="1378" d="M152 0v1434h1065v-367h-672v-178h522v-344h-522v-178h684v-367h-1077z" />
<glyph unicode="F" horiz-adv-x="1269" d="M152 0v1434h1044v-367h-651v-225h502v-353h-502v-489h-393z" />
<glyph unicode="G" horiz-adv-x="1619" d="M68 717q0 159 58.5 298t158 237t236.5 154t290 56q204 1 378.5 -101.5t272.5 -281.5l-401 -104q-44 44 -113.5 71t-136.5 27q-156 0 -245 -99t-89 -257q0 -167 99 -265t258 -98q228 0 309 162h-340v313h694v-829h-336v37.5t0.5 26t1 15.5t0.5 9v2h-2q-60 -63 -158.5 -91 t-191.5 -28q-204 0 -374 95.5t-269.5 267t-99.5 383.5z" />
<glyph unicode="H" horiz-adv-x="1556" d="M152 0v1434h393v-539h467v539h393v-1434h-393v528h-467v-528h-393z" />
<glyph unicode="I" horiz-adv-x="694" d="M152 0v1434h393v-1434h-393z" />
<glyph unicode="J" horiz-adv-x="1404" d="M18 338l385 102q73 -102 215 -102q122 0 193.5 80.5t71.5 216.5v799h393v-785q0 -162 -49.5 -291t-137.5 -213.5t-208 -129t-263 -44.5q-203 0 -368 103t-232 264z" />
<glyph unicode="K" horiz-adv-x="1525" d="M152 0v1434h393v-193q0 -104 -1.5 -180t-2.5 -95.5t0 -19.5h2l9 10q9 10 53 56t112 114l309 308h481l-614 -617l608 -817h-463l-403 557l-90 -90v-467h-393z" />
<glyph unicode="L" horiz-adv-x="1236" d="M152 0v1434h393v-1067h651v-367h-1044z" />
<glyph unicode="M" horiz-adv-x="1763" d="M152 0v1434h368l244 -387q43 -68 73 -117.5t36.5 -61.5t7.5 -12h2q1 0 7.5 12t36 61t72.5 118l244 387h369v-1434h-385v268q0 163 3 292t5 172l2 44h-2q-1 0 -65 -107.5t-64 -109.5l-123 -205h-203l-121 205q-1 1 -33.5 55t-64.5 108t-33 54h-2l2 -44q2 -43 5.5 -171.5 t3.5 -292.5v-268h-385z" />
<glyph unicode="N" horiz-adv-x="1619" d="M152 0v1434h368l213 -285q38 -50 124 -169t151.5 -210.5t66.5 -91.5h2q1 29 0.5 80.5t-1.5 202t-1 264.5v209h393v-1434h-370l-197 272q-56 77 -147 203.5t-149.5 208.5t-59.5 82h-2q-1 -30 -0.5 -72.5t1.5 -199t1 -297.5v-197h-393z" />
<glyph unicode="O" d="M68 717q0 159 58.5 298t158 237t236.5 154t290 56t290 -56t237 -154t159 -237t59 -298q0 -212 -100 -383.5t-270.5 -267t-374.5 -95.5t-374 95.5t-269.5 267t-99.5 383.5zM477 717q0 -160 90 -258.5t244 -98.5q155 0 244.5 98t89.5 259q0 162 -89.5 259t-244.5 97 q-154 0 -244 -97.5t-90 -258.5z" />
<glyph unicode="P" horiz-adv-x="1363" d="M152 0v1434h575q269 0 422.5 -133.5t153.5 -368.5q0 -234 -153.5 -367t-422.5 -133h-182v-432h-393zM545 799h176q79 0 124.5 35t45.5 98t-44.5 99t-125.5 36h-176v-268z" />
<glyph unicode="Q" d="M68 717q0 159 58.5 298t158 237t236.5 154t290 56t290 -56t237 -154t159 -237t59 -298q0 -267 -155.5 -464.5t-399.5 -258.5v-264h-393v268q-239 64 -389.5 259.5t-150.5 459.5zM477 717q0 -160 90 -258.5t244 -98.5q155 0 244.5 98t89.5 259q0 162 -89.5 259t-244.5 97 q-154 0 -244 -97.5t-90 -258.5z" />
<glyph unicode="R" horiz-adv-x="1417" d="M152 0v1434h561q274 0 432 -137.5t158 -364.5q0 -141 -64 -247t-184 -167l309 -518h-440l-250 449h-129v-449h-393zM545 797h223q63 0 93 42.5t30 92.5q0 48 -29.5 91.5t-93.5 43.5h-223v-270z" />
<glyph unicode="S" horiz-adv-x="1267" d="M33 410l377 100q35 -78 103.5 -134.5t158.5 -56.5q69 0 102 25.5t33 65.5q0 25 -15 45t-51 38.5t-70 31.5t-100.5 36.5t-113.5 42.5q-61 25 -105.5 46.5t-96.5 59t-84.5 79t-54.5 103t-22 134.5q0 83 41.5 162t113 139.5t175 97.5t219.5 37q202 0 358 -111.5t213 -283.5 l-378 -104q-26 80 -88 120.5t-130 40.5q-56 0 -87 -22.5t-31 -50.5q0 -16 7 -30.5t23 -27t33 -22.5t47.5 -22.5t54.5 -21.5t65 -24t69 -26q89 -34 158.5 -72.5t133.5 -92.5t99 -126.5t35 -157.5q0 -202 -158.5 -329.5t-411.5 -127.5q-221 0 -381.5 115t-240.5 324z" />
<glyph unicode="T" horiz-adv-x="1261" d="M14 1067v367h1233v-367h-424v-1067h-393v1067h-416z" />
<glyph unicode="U" horiz-adv-x="1546" d="M127 649v785h393v-775q0 -167 64 -244t190 -77q125 0 188.5 77.5t63.5 243.5v775h393v-785q0 -321 -177 -499.5t-468 -178.5q-144 0 -263 45t-204.5 129.5t-132.5 213.5t-47 290z" />
<glyph unicode="V" horiz-adv-x="1472" d="M-10 1434h430l233 -725q26 -77 46 -146.5t27.5 -99t8.5 -29.5h2q1 0 8.5 29.5t27.5 99t46 146.5l234 725h430l-533 -1434h-426z" />
<glyph unicode="W" horiz-adv-x="2193" d="M37 1434h420l135 -594q15 -59 29.5 -120.5t20.5 -89.5t7 -28h2q1 0 9 28.5t27.5 88.5t41.5 121l182 475h371l182 -475q22 -61 41.5 -121t27.5 -88.5t9 -28.5h2q1 0 7 27.5t20 90.5t28 120l136 594h419l-419 -1434h-373l-205 635q-18 55 -32.5 113t-20.5 88l-6 30h-2 l-6 -30q-7 -30 -21.5 -88t-32.5 -113l-207 -635h-372z" />
<glyph unicode="X" horiz-adv-x="1423" d="M16 0l461 727l-446 707h473l131 -240q8 -14 27 -50t33.5 -64.5t15.5 -28.5h2q1 0 15 28l32.5 65t25.5 50l134 240h471l-445 -707l459 -727h-467l-117 197q-9 19 -58 106.5t-50 87.5h-2q-2 0 -111 -194l-117 -197h-467z" />
<glyph unicode="Y" horiz-adv-x="1519" d="M16 1434h441l231 -359q66 -102 70 -102h2q6 0 69 102l234 359h438l-547 -818v-616h-391v616z" />
<glyph unicode="Z" horiz-adv-x="1470" d="M123 0v369l579 575q23 25 58.5 56.5t58.5 50.5t23 20l-2 2l-16 -1q-17 0 -43 -1t-55.5 -2t-62.5 -1.5t-57 -0.5h-463v367h1205v-369l-547 -559q-27 -29 -62.5 -65.5t-56 -57t-20.5 -21.5l2 -2h6q7 1 18.5 1.5t27 1.5t36 1.5t43 1t49.5 1t53 0.5h451v-367h-1225z" />
<glyph unicode="[" horiz-adv-x="827" d="M152 -311v2064h665v-367h-274v-1331h274v-366h-665z" />
<glyph unicode="\" horiz-adv-x="1089" d="M-10 1434h377l733 -1434h-410z" />
<glyph unicode="]" horiz-adv-x="821" d="M4 55h275v1331h-275v367h666v-2064h-666v366z" />
<glyph unicode="^" horiz-adv-x="1259" d="M152 977l479 481l479 -481l-166 -143l-313 323l-316 -323z" />
<glyph unicode="_" horiz-adv-x="1615" d="M152 0h1312v-311h-1312v311z" />
<glyph unicode="`" horiz-adv-x="665" d="M-25 1694l131 262l504 -268l-110 -205z" />
<glyph unicode="a" horiz-adv-x="1472" d="M-10 0l559 1434h375l559 -1434h-424l-64 184h-518l-63 -184h-424zM594 526h285l-72 209q-13 36 -30.5 92t-28 92.5t-11.5 36.5h-2q-1 0 -11.5 -36.5t-27.5 -92.5t-30 -92z" />
<glyph unicode="b" horiz-adv-x="1359" d="M152 0v1434h645q192 0 316 -113t124 -274q0 -93 -49.5 -171.5t-112.5 -105.5v-2q98 -30 164 -129.5t66 -200.5q0 -92 -30.5 -169.5t-91.5 -138.5t-163.5 -95.5t-237.5 -34.5h-630zM545 330h196q70 0 111 36t41 93q0 61 -41 95t-109 34h-198v-258zM545 885h170 q55 0 91 30.5t36 79.5q0 46 -36.5 77.5t-90.5 31.5h-170v-219z" />
<glyph unicode="c" horiz-adv-x="1540" d="M68 717q0 159 58.5 298t158 237t236.5 154t290 56q209 0 381.5 -104t269.5 -279l-401 -104q-42 44 -112.5 71t-137.5 27q-156 0 -245 -99t-89 -257q0 -163 92 -257.5t242 -94.5q84 0 161.5 37.5t114.5 95.5l400 -103q-90 -193 -271.5 -308.5t-404.5 -115.5 q-204 0 -374 95.5t-269.5 267t-99.5 383.5z" />
<glyph unicode="d" horiz-adv-x="1591" d="M152 0v1434h632q204 0 373 -90t269 -256.5t100 -376.5q0 -158 -58.5 -292.5t-159.5 -225.5t-237.5 -142t-290.5 -51h-628zM545 367h235q141 0 238.5 93t97.5 251t-97.5 257t-234.5 99h-239v-700z" />
<glyph unicode="e" horiz-adv-x="1378" d="M152 0v1434h1065v-367h-672v-178h522v-344h-522v-178h684v-367h-1077z" />
<glyph unicode="f" horiz-adv-x="1269" d="M152 0v1434h1044v-367h-651v-225h502v-353h-502v-489h-393z" />
<glyph unicode="g" horiz-adv-x="1619" d="M68 717q0 159 58.5 298t158 237t236.5 154t290 56q204 1 378.5 -101.5t272.5 -281.5l-401 -104q-44 44 -113.5 71t-136.5 27q-156 0 -245 -99t-89 -257q0 -167 99 -265t258 -98q228 0 309 162h-340v313h694v-829h-336v37.5t0.5 26t1 15.5t0.5 9v2h-2q-60 -63 -158.5 -91 t-191.5 -28q-204 0 -374 95.5t-269.5 267t-99.5 383.5z" />
<glyph unicode="h" horiz-adv-x="1556" d="M152 0v1434h393v-539h467v539h393v-1434h-393v528h-467v-528h-393z" />
<glyph unicode="i" horiz-adv-x="694" d="M152 0v1434h393v-1434h-393z" />
<glyph unicode="j" horiz-adv-x="1404" d="M18 338l385 102q73 -102 215 -102q122 0 193.5 80.5t71.5 216.5v799h393v-785q0 -162 -49.5 -291t-137.5 -213.5t-208 -129t-263 -44.5q-203 0 -368 103t-232 264z" />
<glyph unicode="k" horiz-adv-x="1525" d="M152 0v1434h393v-193q0 -104 -1.5 -180t-2.5 -95.5t0 -19.5h2l9 10q9 10 53 56t112 114l309 308h481l-614 -617l608 -817h-463l-403 557l-90 -90v-467h-393z" />
<glyph unicode="l" horiz-adv-x="1236" d="M152 0v1434h393v-1067h651v-367h-1044z" />
<glyph unicode="m" horiz-adv-x="1763" d="M152 0v1434h368l244 -387q43 -68 73 -117.5t36.5 -61.5t7.5 -12h2q1 0 7.5 12t36 61t72.5 118l244 387h369v-1434h-385v268q0 163 3 292t5 172l2 44h-2q-1 0 -65 -107.5t-64 -109.5l-123 -205h-203l-121 205q-1 1 -33.5 55t-64.5 108t-33 54h-2l2 -44q2 -43 5.5 -171.5 t3.5 -292.5v-268h-385z" />
<glyph unicode="n" horiz-adv-x="1619" d="M152 0v1434h368l213 -285q38 -50 124 -169t151.5 -210.5t66.5 -91.5h2q1 29 0.5 80.5t-1.5 202t-1 264.5v209h393v-1434h-370l-197 272q-56 77 -147 203.5t-149.5 208.5t-59.5 82h-2q-1 -30 -0.5 -72.5t1.5 -199t1 -297.5v-197h-393z" />
<glyph unicode="o" d="M68 717q0 159 58.5 298t158 237t236.5 154t290 56t290 -56t237 -154t159 -237t59 -298q0 -212 -100 -383.5t-270.5 -267t-374.5 -95.5t-374 95.5t-269.5 267t-99.5 383.5zM477 717q0 -160 90 -258.5t244 -98.5q155 0 244.5 98t89.5 259q0 162 -89.5 259t-244.5 97 q-154 0 -244 -97.5t-90 -258.5z" />
<glyph unicode="p" horiz-adv-x="1363" d="M152 0v1434h575q269 0 422.5 -133.5t153.5 -368.5q0 -234 -153.5 -367t-422.5 -133h-182v-432h-393zM545 799h176q79 0 124.5 35t45.5 98t-44.5 99t-125.5 36h-176v-268z" />
<glyph unicode="q" d="M68 717q0 159 58.5 298t158 237t236.5 154t290 56t290 -56t237 -154t159 -237t59 -298q0 -267 -155.5 -464.5t-399.5 -258.5v-264h-393v268q-239 64 -389.5 259.5t-150.5 459.5zM477 717q0 -160 90 -258.5t244 -98.5q155 0 244.5 98t89.5 259q0 162 -89.5 259t-244.5 97 q-154 0 -244 -97.5t-90 -258.5z" />
<glyph unicode="r" horiz-adv-x="1417" d="M152 0v1434h561q274 0 432 -137.5t158 -364.5q0 -141 -64 -247t-184 -167l309 -518h-440l-250 449h-129v-449h-393zM545 797h223q63 0 93 42.5t30 92.5q0 48 -29.5 91.5t-93.5 43.5h-223v-270z" />
<glyph unicode="s" horiz-adv-x="1267" d="M33 410l377 100q35 -78 103.5 -134.5t158.5 -56.5q69 0 102 25.5t33 65.5q0 25 -15 45t-51 38.5t-70 31.5t-100.5 36.5t-113.5 42.5q-61 25 -105.5 46.5t-96.5 59t-84.5 79t-54.5 103t-22 134.5q0 83 41.5 162t113 139.5t175 97.5t219.5 37q202 0 358 -111.5t213 -283.5 l-378 -104q-26 80 -88 120.5t-130 40.5q-56 0 -87 -22.5t-31 -50.5q0 -16 7 -30.5t23 -27t33 -22.5t47.5 -22.5t54.5 -21.5t65 -24t69 -26q89 -34 158.5 -72.5t133.5 -92.5t99 -126.5t35 -157.5q0 -202 -158.5 -329.5t-411.5 -127.5q-221 0 -381.5 115t-240.5 324z" />
<glyph unicode="t" horiz-adv-x="1261" d="M14 1067v367h1233v-367h-424v-1067h-393v1067h-416z" />
<glyph unicode="u" horiz-adv-x="1546" d="M127 649v785h393v-775q0 -167 64 -244t190 -77q125 0 188.5 77.5t63.5 243.5v775h393v-785q0 -321 -177 -499.5t-468 -178.5q-144 0 -263 45t-204.5 129.5t-132.5 213.5t-47 290z" />
<glyph unicode="v" horiz-adv-x="1472" d="M-10 1434h430l233 -725q26 -77 46 -146.5t27.5 -99t8.5 -29.5h2q1 0 8.5 29.5t27.5 99t46 146.5l234 725h430l-533 -1434h-426z" />
<glyph unicode="w" horiz-adv-x="2193" d="M37 1434h420l135 -594q15 -59 29.5 -120.5t20.5 -89.5t7 -28h2q1 0 9 28.5t27.5 88.5t41.5 121l182 475h371l182 -475q22 -61 41.5 -121t27.5 -88.5t9 -28.5h2q1 0 7 27.5t20 90.5t28 120l136 594h419l-419 -1434h-373l-205 635q-18 55 -32.5 113t-20.5 88l-6 30h-2 l-6 -30q-7 -30 -21.5 -88t-32.5 -113l-207 -635h-372z" />
<glyph unicode="x" horiz-adv-x="1423" d="M16 0l461 727l-446 707h473l131 -240q8 -14 27 -50t33.5 -64.5t15.5 -28.5h2q1 0 15 28l32.5 65t25.5 50l134 240h471l-445 -707l459 -727h-467l-117 197q-9 19 -58 106.5t-50 87.5h-2q-2 0 -111 -194l-117 -197h-467z" />
<glyph unicode="y" horiz-adv-x="1519" d="M16 1434h441l231 -359q66 -102 70 -102h2q6 0 69 102l234 359h438l-547 -818v-616h-391v616z" />
<glyph unicode="z" horiz-adv-x="1470" d="M123 0v369l579 575q23 25 58.5 56.5t58.5 50.5t23 20l-2 2l-16 -1q-17 0 -43 -1t-55.5 -2t-62.5 -1.5t-57 -0.5h-463v367h1205v-369l-547 -559q-27 -29 -62.5 -65.5t-56 -57t-20.5 -21.5l2 -2h6q7 1 18.5 1.5t27 1.5t36 1.5t43 1t49.5 1t53 0.5h451v-367h-1225z" />
<glyph unicode="{" horiz-adv-x="966" d="M152 721q5 2 14 6t31 25.5t39 53t31 92.5t14 138v181q0 125 42 231t123.5 186.5t210 126t291.5 45.5v-366q-47 0 -82 -5t-73 -23.5t-62.5 -50t-40.5 -88t-16 -134.5v-86q0 -77 -10 -138.5t-23.5 -96t-30 -58t-27 -31t-16.5 -8.5q6 -1 16.5 -8.5t27 -31t30 -57.5 t23.5 -95.5t10 -137.5v-88q0 -78 16 -134.5t40.5 -88t62.5 -50t73 -23.5t82 -5v-367q-163 0 -291.5 46t-210 126.5t-123.5 186.5t-42 231v181q0 56 -7 104t-18.5 79.5t-25.5 56.5t-27.5 38.5t-25 22t-18.5 11.5z" />
<glyph unicode="|" horiz-adv-x="608" d="M152 -152v1739h307v-1739h-307z" />
<glyph unicode="}" horiz-adv-x="966" d="M18 2q47 0 82 5t73.5 23.5t63 50t40.5 88t16 134.5v88q0 76 10 137.5t23.5 95.5t29.5 57.5t26.5 31t16.5 8.5q-6 1 -16.5 8.5t-26.5 31t-29.5 58t-23.5 96t-10 138.5v86q0 78 -16 134.5t-40.5 88t-63 50t-73.5 23.5t-82 5v366q163 0 292 -45.5t210 -126t123.5 -186.5 t42.5 -231v-181q0 -56 7 -104t18.5 -79.5t25 -56.5t27.5 -38.5t25.5 -22t18.5 -11.5l7 -3q-5 -2 -14 -6t-31 -25.5t-39 -53t-31 -92.5t-14 -138v-181q0 -125 -42.5 -231t-123.5 -186.5t-210 -126.5t-292 -46v367z" />
<glyph unicode="~" horiz-adv-x="1429" d="M76 575q10 71 40 128t70 92.5t90 59.5t97.5 34t95.5 10q66 0 139.5 -18.5t125.5 -41t106.5 -41t87.5 -18.5q41 0 69.5 12.5t41 33t17 39.5t3.5 40l325 -86q-10 -70 -40 -127t-70.5 -93t-91 -60.5t-99 -34.5t-96.5 -10q-85 0 -177 30t-166 60t-114 30q-42 0 -71 -12.5 t-42 -33t-18 -39.5t-4 -40z" />
<glyph unicode="&#xa1;" horiz-adv-x="694" d="M152 0v1001h393v-1001h-393zM152 1112v322h393v-322h-393z" />
<glyph unicode="&#xa2;" horiz-adv-x="1200" d="M68 705q0 191 111 337.5t284 198.5v221h311v-219q120 -34 214.5 -114.5t144.5 -190.5l-345 -88q-32 39 -70.5 57.5t-94.5 18.5q-95 0 -146 -58t-51 -163q0 -106 51 -165t146 -59q125 0 180 111l344 -92q-46 -123 -145 -212t-228 -124v-193h-311v195q-173 52 -284 199.5 t-111 339.5z" />
<glyph unicode="&#xa3;" horiz-adv-x="1327" d="M147 526v305h86l-16 160q-12 121 56.5 230t186.5 173.5t249 67.5q55 1 117.5 -11t132.5 -42t130 -75.5t109 -117.5t70 -161l-330 -92q-27 72 -78 114.5t-123 38.5q-64 -4 -98.5 -52.5t-28.5 -109.5l13 -123h360v-305h-332q6 -52 -8.5 -97t-42.5 -71l2 -2h6q7 1 20 2 t30 2.5t41 2.5t51.5 2t62 1.5t70.5 0.5h370v-367h-1101v367q72 12 95.5 44t16.5 107v8h-117z" />
<glyph unicode="&#xa4;" horiz-adv-x="1380" d="M61 1116l191 191l137 -138q131 86 297 86q161 0 307 -86l137 138l191 -191l-141 -139q75 -132 75 -287q0 -158 -86 -301l131 -131l-190 -190l-135 133q-134 -78 -289 -78q-153 0 -283 76l-131 -131l-190 190l127 129q-86 146 -86 303q0 153 76 289zM473 698 q0 -102 62 -161.5t153 -59.5q94 0 156.5 59.5t62.5 161.5q0 98 -63 159t-156 61q-90 0 -152.5 -61.5t-62.5 -158.5z" />
<glyph unicode="&#xa5;" horiz-adv-x="1517" d="M16 1434h441l231 -359q66 -102 70 -102h2q6 0 69 102l234 359h438l-293 -439h152v-250h-320l-36 -55h356v-250h-406v-440h-391v440h-403v250h354l-37 55h-317v250h149z" />
<glyph unicode="&#xa6;" horiz-adv-x="608" d="M152 -152v594h307v-594h-307zM152 1014v573h307v-573h-307z" />
<glyph unicode="&#xa7;" horiz-adv-x="1095" d="M33 270l317 84q32 -56 90.5 -96.5t134.5 -40.5q62 0 90.5 18.5t28.5 47.5q0 14 -7 26t-22.5 22t-33 18t-47 17t-55.5 16.5t-66 19.5t-72 22q-67 23 -113.5 44.5t-95 56.5t-73.5 85.5t-25 114.5q0 126 147 201q-147 82 -147 227q0 121 132 214t329 93q168 0 298 -75 t183 -189l-311 -82q-23 56 -76.5 84.5t-114.5 28.5q-48 0 -74 -17t-26 -39t12 -37.5t38 -26.5t52.5 -18t72 -19t79.5 -23q358 -111 358 -314q0 -143 -151 -198q168 -98 168 -238q0 -144 -134 -234t-354 -90q-189 0 -325.5 77.5t-206.5 219.5zM410 743q0 -14 5.5 -25.5 t17.5 -20.5t24.5 -15.5t35 -13t40.5 -11l48 -12l50 -12.5q40 8 59 28t19 56q0 11 -2.5 21t-10 18t-14 14t-20 12t-23.5 10t-29 9t-31 8t-35.5 9t-37.5 9q-51 -5 -73.5 -29t-22.5 -55z" />
<glyph unicode="&#xa8;" horiz-adv-x="940" d="M-25 1739q0 69 49 117.5t119 48.5q69 0 116.5 -48.5t47.5 -117.5t-47.5 -116.5t-116.5 -47.5q-71 0 -119.5 47.5t-48.5 116.5zM547 1739q0 69 48 117.5t118 48.5q69 0 117.5 -48.5t48.5 -117.5t-48.5 -116.5t-117.5 -47.5q-70 0 -118 47.5t-48 116.5z" />
<glyph unicode="&#xa9;" d="M68 717q0 159 58.5 298t158 237t236.5 154t290 56t290 -56t237 -154t159 -237t59 -298q0 -212 -100 -383.5t-270.5 -267t-374.5 -95.5t-374 95.5t-269.5 267t-99.5 383.5zM352 717q0 -207 129 -342t330 -135q200 0 329.5 135.5t129.5 341.5q0 210 -129 345.5t-330 135.5 q-202 0 -330.5 -135.5t-128.5 -345.5zM471 721q0 144 100.5 242t239.5 98q102 0 185.5 -54t123.5 -143l-215 -57q-22 22 -42 31.5t-52 9.5q-54 0 -84.5 -33t-30.5 -94t30.5 -95t84.5 -34q69 0 100 61l217 -59q-36 -96 -122.5 -155.5t-194.5 -59.5q-139 0 -239.5 98.5 t-100.5 243.5z" />
<glyph unicode="&#xaa;" horiz-adv-x="761" d="M39 768l233 682h217l234 -682h-234l-22 92h-176l-23 -92h-229zM41 412v231h680v-231h-680zM334 1032h90q-12 46 -23 98.5t-15 81.5l-5 29h-2q-17 -105 -45 -209z" />
<glyph unicode="&#xab;" horiz-adv-x="1646" d="M152 721l483 479l209 -211l-283 -268l285 -268l-213 -213zM801 721l483 479l209 -211l-283 -268l285 -268l-213 -213z" />
<glyph unicode="&#xad;" horiz-adv-x="1224" d="M152 565v320h921v-320h-921z" />
<glyph unicode="&#xae;" d="M68 717q0 159 58.5 298t158 237t236.5 154t290 56t290 -56t237 -154t159 -237t59 -298q0 -212 -100 -383.5t-270.5 -267t-374.5 -95.5t-374 95.5t-269.5 267t-99.5 383.5zM352 717q0 -207 129 -342t330 -135q200 0 329.5 135.5t129.5 341.5q0 210 -129 345.5t-330 135.5 q-202 0 -330.5 -135.5t-128.5 -345.5zM553 387v666h260q126 0 199 -63t73 -167q0 -129 -108 -186l147 -250h-219l-112 215h-33v-215h-207zM760 768h84q14 0 26.5 17t12.5 30q0 15 -11.5 32t-27.5 17h-84v-96z" />
<glyph unicode="&#xaf;" horiz-adv-x="659" d="M-74 1350v301h725v-301h-725z" />
<glyph unicode="&#xb0;" horiz-adv-x="714" d="M27 1479q0 135 98 233t233 98q137 0 233.5 -97.5t96.5 -233.5t-96.5 -233t-233.5 -97q-135 0 -233 97.5t-98 232.5zM254 1483q0 -43 31.5 -75t72.5 -32q47 0 79 32t32 75q0 46 -32 78t-79 32q-42 0 -73 -32.5t-31 -77.5z" />
<glyph unicode="&#xb1;" horiz-adv-x="1429" d="M254 -18v319h924v-319h-924zM254 565v320h291v313h340v-313h293v-320h-291v-141h-340v141h-293z" />
<glyph unicode="&#xb2;" horiz-adv-x="702" d="M41 1511q9 46 35 93t65 87t95 65.5t118 25.5q128 0 211.5 -80.5t83.5 -198.5t-112 -219q-20 -20 -58 -43q-25 -17 -54 -33.5t-43.5 -24.5t-14.5 -9l2 -3q88 17 223 17h55v-213h-602v160l227 202q14 12 42.5 35.5t39.5 34t27 28t21.5 34t5.5 36.5q0 22 -16.5 36.5 t-41.5 14.5q-20 0 -35.5 -8t-26 -23t-16 -25.5t-10.5 -27.5l-6 -18z" />
<glyph unicode="&#xb3;" horiz-adv-x="727" d="M41 1186l209 57q13 -41 38.5 -59.5t78.5 -18.5q32 0 53.5 16.5t21.5 43.5q0 33 -23 51t-59 18h-69v168h69q26 0 46 18.5t20 41.5q0 24 -20 39.5t-41 15.5q-42 0 -67.5 -17.5t-41.5 -66.5l-203 53q23 108 108 172t206 64q131 0 211.5 -68.5t80.5 -173.5q0 -72 -52 -117 t-101 -43v-2q68 0 118 -41.5t50 -119.5q0 -111 -87 -185t-220 -74q-117 0 -210 65.5t-116 162.5z" />
<glyph unicode="&#xb4;" horiz-adv-x="665" d="M-25 1688l504 268l131 -262l-524 -211z" />
<glyph unicode="&#xb6;" horiz-adv-x="1785" d="M68 987q0 211 142.5 329t397.5 118h1026v-1434h-393v1065h-172v-1065h-369v541h-92q-255 0 -397.5 117.5t-142.5 328.5z" />
<glyph unicode="&#xb7;" horiz-adv-x="600" d="M123 737q0 72 52 123t126 51q72 0 124 -51t52 -123q0 -75 -51.5 -127.5t-124.5 -52.5q-74 0 -126 52.5t-52 127.5z" />
<glyph unicode="&#xb8;" horiz-adv-x="567" d="M-25 -580l78 201h205q45 0 45 33q0 32 -45 35h-244l107 311h209l-43 -119q90 2 157.5 -60t67.5 -163q0 -124 -72 -181t-182 -57h-283z" />
<glyph unicode="&#xb9;" horiz-adv-x="567" d="M18 1483l316 282h176v-790h-246v334q0 22 1 44.5t3 39t4 29.5t3 20l1 8h-2q-1 0 -9 -10.5t-26 -31t-40 -40.5l-27 -20z" />
<glyph unicode="&#xba;" horiz-adv-x="741" d="M20 1106q0 152 101 251t248 99q148 0 250 -99t102 -251q0 -150 -102 -249t-250 -99q-147 0 -248 99t-101 249zM41 412v231h659v-231h-659zM252 1106q0 -57 33 -93t84 -36q54 0 88.5 36t34.5 93q0 58 -34.5 94.5t-88.5 36.5q-51 0 -84 -36.5t-33 -94.5z" />
<glyph unicode="&#xbb;" horiz-adv-x="1646" d="M152 453l284 268l-282 268l208 211l484 -479l-481 -481zM801 453l286 268l-284 268l209 211l485 -479l-481 -481z" />
<glyph unicode="&#xbc;" horiz-adv-x="1564" d="M18 1151l316 283h176v-791h-246v334q0 22 1 44.5t3 39t4 29.5t3 20l1 8h-2q-1 0 -9 -10.5t-26 -31t-40 -40.5l-27 -20zM137 0l1041 1434h249l-1042 -1434h-248zM838 119v168l405 504h191v-469h79v-203h-79v-119h-217v119h-379zM1083 309h2l5 1q5 1 12 2t16 2t20 2t21 1 h58v148h-3q-1 0 -2 -1.5l-4 -6t-6 -8.5l-92 -105q-27 -31 -27 -33v-2z" />
<glyph unicode="&#xbd;" d="M18 1151l316 283h176v-791h-246v334q0 22 1 44.5t3 39t4 29.5t3 20l1 8h-2q-1 0 -9 -10.5t-26 -31t-40 -40.5l-27 -20zM137 0l1041 1434h249l-1042 -1434h-248zM961 537q9 46 35 92.5t65 87t95 65.5t118 25q128 0 211.5 -80.5t83.5 -198.5q0 -117 -113 -219 q-21 -21 -57 -43q-26 -17 -54.5 -33.5t-43.5 -24.5t-15 -9l2 -2q88 16 223 16h56v-213h-602v160l227 202q13 11 42 35t39.5 34t26.5 28t21.5 34.5t5.5 36.5q0 22 -16 37t-41 15q-20 0 -35.5 -8t-26 -23t-16 -26t-11 -28t-5.5 -18z" />
<glyph unicode="&#xbe;" horiz-adv-x="1681" d="M41 854l209 57q13 -40 38.5 -58.5t78.5 -18.5q32 0 53.5 16t21.5 43q0 33 -23 51.5t-59 18.5h-69v167h69q26 0 46 18.5t20 41.5q0 24 -20 39.5t-41 15.5q-42 0 -67.5 -17.5t-41.5 -66.5l-203 53q23 108 108 172t206 64q131 0 211.5 -68.5t80.5 -173.5q0 -72 -52 -116.5 t-101 -42.5v-2q68 0 118 -42t50 -120q0 -111 -87 -184.5t-220 -73.5q-117 0 -210 65t-116 162zM252 0l1042 1434h248l-1040 -1434h-250zM952 119v168l406 504h190v-469h80v-203h-80v-119h-217v119h-379zM1198 309h2l5 1q5 1 12 2t16 2t20 2t21 1h57v148h-2q-1 0 -2 -1.5 l-4 -6t-6 -8.5l-92 -105q-27 -31 -27 -33v-2z" />
<glyph unicode="&#xbf;" horiz-adv-x="1218" d="M68 401q0 69 19.5 127.5t43 96.5t76.5 82.5t86 66.5t106 67q4 2 5.5 3.5t4.5 3t5.5 3t5.5 3.5v147h393v-282q-41 -27 -96 -63t-81 -52.5t-59.5 -40t-47 -36.5t-28.5 -31t-19.5 -33.5t-4.5 -34.5q0 -39 34 -77t99 -38q81 0 130.5 36t82.5 122l328 -92 q-46 -186 -195.5 -297t-361.5 -111q-238 0 -382 120.5t-144 309.5zM420 1112v322h393v-322h-393z" />
<glyph unicode="&#xc0;" horiz-adv-x="1472" d="M-10 0l559 1434h375l559 -1434h-424l-64 184h-518l-63 -184h-424zM317 1694l134 262l503 -268l-112 -205zM594 526h285l-72 209q-13 36 -30.5 92t-28 92.5t-11.5 36.5h-2q-1 0 -11.5 -36.5t-27.5 -92.5t-30 -92z" />
<glyph unicode="&#xc1;" horiz-adv-x="1472" d="M-10 0l559 1434h375l559 -1434h-424l-64 184h-518l-63 -184h-424zM463 1688l504 268l133 -262l-525 -211zM594 526h285l-72 209q-13 36 -30.5 92t-28 92.5t-11.5 36.5h-2q-1 0 -11.5 -36.5t-27.5 -92.5t-30 -92z" />
<glyph unicode="&#xc2;" horiz-adv-x="1472" d="M-10 0l559 1434h375l559 -1434h-424l-64 184h-518l-63 -184h-424zM305 1667l420 358l420 -358l-187 -188l-233 190l-231 -190zM594 526h285l-72 209q-13 36 -30.5 92t-28 92.5t-11.5 36.5h-2q-1 0 -11.5 -36.5t-27.5 -92.5t-30 -92z" />
<glyph unicode="&#xc3;" horiz-adv-x="1472" d="M-10 0l559 1434h375l559 -1434h-424l-64 184h-518l-63 -184h-424zM203 1550q0 151 99 249.5t251 98.5q56 0 108.5 -20t85 -44.5t70 -44.5t68.5 -20q40 0 64 24t24 62h301q0 -153 -98.5 -251.5t-251.5 -98.5q-54 0 -105.5 20t-84.5 44.5t-72 44.5t-70 20q-38 0 -62 -23.5 t-24 -60.5h-303zM594 526h285l-72 209q-13 36 -30.5 92t-28 92.5t-11.5 36.5h-2q-1 0 -11.5 -36.5t-27.5 -92.5t-30 -92z" />
<glyph unicode="&#xc4;" horiz-adv-x="1472" d="M-10 0l559 1434h375l559 -1434h-424l-64 184h-518l-63 -184h-424zM274 1739q0 69 49 117.5t119 48.5q69 0 116.5 -48.5t47.5 -117.5t-47.5 -116.5t-116.5 -47.5q-71 0 -119.5 47.5t-48.5 116.5zM594 526h285l-72 209q-13 36 -30.5 92t-28 92.5t-11.5 36.5h-2 q-1 0 -11.5 -36.5t-27.5 -92.5t-30 -92zM846 1739q0 69 48 117.5t118 48.5q69 0 117.5 -48.5t48.5 -117.5t-48.5 -116.5t-117.5 -47.5q-70 0 -118 47.5t-48 116.5z" />
<glyph unicode="&#xc5;" horiz-adv-x="1472" d="M-10 0l559 1434h4q-69 45 -110.5 118.5t-41.5 157.5q0 135 99.5 232.5t234.5 97.5q136 0 233 -97.5t97 -232.5q0 -85 -40.5 -158t-109.5 -118h9l559 -1434h-424l-64 184h-518l-63 -184h-424zM594 526h285l-72 209q-13 36 -30.5 92t-28 92.5t-11.5 36.5h-2 q-1 0 -11.5 -36.5t-27.5 -92.5t-30 -92zM631 1712q0 -41 31.5 -73.5t72.5 -32.5q46 0 78.5 32t32.5 74q0 46 -32 78.5t-79 32.5q-42 0 -73 -33t-31 -78z" />
<glyph unicode="&#xc6;" horiz-adv-x="2115" d="M-10 0l557 1434h1409v-367h-674v-178h522v-344h-522v-178h686v-367h-1065v184h-426l-61 -184h-426zM592 526h309v541h-129q-1 0 -17.5 -50t-43.5 -132t-45 -133z" />
<glyph unicode="&#xc7;" horiz-adv-x="1540" d="M68 717q0 159 58.5 298t158 237t236.5 154t290 56q209 0 381.5 -104t269.5 -279l-401 -104q-42 44 -112.5 71t-137.5 27q-156 0 -245 -99t-89 -257q0 -163 92 -257.5t242 -94.5q84 0 161.5 37.5t114.5 95.5l400 -103q-80 -172 -235.5 -284.5t-350.5 -135.5l-35 -94 q90 2 158 -60t68 -163q0 -124 -72 -181t-182 -57h-283l78 201h205q45 0 45 33q0 32 -45 35h-244l100 291q-133 20 -248 83t-198.5 158t-131.5 223.5t-48 272.5z" />
<glyph unicode="&#xc8;" horiz-adv-x="1378" d="M152 0v1434h1065v-367h-672v-178h522v-344h-522v-178h684v-367h-1077zM303 1694l133 262l504 -268l-113 -205z" />
<glyph unicode="&#xc9;" horiz-adv-x="1378" d="M152 0v1434h1065v-367h-672v-178h522v-344h-522v-178h684v-367h-1077zM449 1688l503 268l133 -262l-524 -211z" />
<glyph unicode="&#xca;" horiz-adv-x="1378" d="M152 0v1434h1065v-367h-672v-178h522v-344h-522v-178h684v-367h-1077zM291 1667l420 358l419 -358l-186 -188l-233 190l-232 -190z" />
<glyph unicode="&#xcb;" horiz-adv-x="1378" d="M152 0v1434h1065v-367h-672v-178h522v-344h-522v-178h684v-367h-1077zM260 1739q0 69 49 117.5t119 48.5q69 0 116.5 -48.5t47.5 -117.5t-47.5 -116.5t-116.5 -47.5q-71 0 -119.5 47.5t-48.5 116.5zM831 1739q0 69 48 117.5t118 48.5q69 0 117.5 -48.5t48.5 -117.5 t-48.5 -116.5t-117.5 -47.5q-70 0 -118 47.5t-48 116.5z" />
<glyph unicode="&#xcc;" horiz-adv-x="694" d="M-70 1694l133 262l504 -268l-112 -205zM152 0v1434h393v-1434h-393z" />
<glyph unicode="&#xcd;" horiz-adv-x="694" d="M76 1688l504 268l133 -262l-525 -211zM152 0v1434h393v-1434h-393z" />
<glyph unicode="&#xce;" horiz-adv-x="694" d="M-82 1667l420 358l420 -358l-187 -188l-233 190l-232 -190zM152 0v1434h393v-1434h-393z" />
<glyph unicode="&#xcf;" horiz-adv-x="694" d="M-113 1739q0 69 49 117.5t119 48.5q69 0 116.5 -48.5t47.5 -117.5t-47.5 -116.5t-116.5 -47.5q-71 0 -119.5 47.5t-48.5 116.5zM152 0v1434h393v-1434h-393zM459 1739q0 69 48 117.5t118 48.5q69 0 117.5 -48.5t48.5 -117.5t-48.5 -116.5t-117.5 -47.5q-70 0 -118 47.5 t-48 116.5z" />
<glyph unicode="&#xd0;" horiz-adv-x="1626" d="M68 547v352h118v535h633q204 0 373 -90t269 -256.5t100 -376.5q0 -158 -58.5 -292.5t-159.5 -225.5t-237.5 -142t-290.5 -51h-629v547h-118zM580 367h235q141 0 238.5 93t97.5 251t-97.5 257t-234.5 99h-239v-168h178v-352h-178v-180z" />
<glyph unicode="&#xd1;" horiz-adv-x="1619" d="M152 0v1434h368l213 -285q38 -50 124 -169t151.5 -210.5t66.5 -91.5h2q1 29 0.5 80.5t-1.5 202t-1 264.5v209h393v-1434h-370l-197 272q-56 77 -147 203.5t-149.5 208.5t-59.5 82h-2q-1 -30 -0.5 -72.5t1.5 -199t1 -297.5v-197h-393zM276 1550q0 151 99.5 249.5 t251.5 98.5q56 0 108 -20t84.5 -44.5t70 -44.5t68.5 -20q40 0 64.5 24t24.5 62h301q0 -153 -99 -251.5t-252 -98.5q-54 0 -105.5 20t-84 44.5t-71.5 44.5t-70 20q-38 0 -62 -23.5t-24 -60.5h-304z" />
<glyph unicode="&#xd2;" d="M68 717q0 159 58.5 298t158 237t236.5 154t290 56t290 -56t237 -154t159 -237t59 -298q0 -212 -100 -383.5t-270.5 -267t-374.5 -95.5t-374 95.5t-269.5 267t-99.5 383.5zM403 1694l134 262l503 -268l-112 -205zM477 717q0 -160 90 -258.5t244 -98.5q155 0 244.5 98 t89.5 259q0 162 -89.5 259t-244.5 97q-154 0 -244 -97.5t-90 -258.5z" />
<glyph unicode="&#xd3;" d="M68 717q0 159 58.5 298t158 237t236.5 154t290 56t290 -56t237 -154t159 -237t59 -298q0 -212 -100 -383.5t-270.5 -267t-374.5 -95.5t-374 95.5t-269.5 267t-99.5 383.5zM477 717q0 -160 90 -258.5t244 -98.5q155 0 244.5 98t89.5 259q0 162 -89.5 259t-244.5 97 q-154 0 -244 -97.5t-90 -258.5zM549 1688l504 268l133 -262l-524 -211z" />
<glyph unicode="&#xd4;" d="M68 717q0 159 58.5 298t158 237t236.5 154t290 56t290 -56t237 -154t159 -237t59 -298q0 -212 -100 -383.5t-270.5 -267t-374.5 -95.5t-374 95.5t-269.5 267t-99.5 383.5zM391 1667l420 358l420 -358l-187 -188l-233 190l-231 -190zM477 717q0 -160 90 -258.5t244 -98.5 q155 0 244.5 98t89.5 259q0 162 -89.5 259t-244.5 97q-154 0 -244 -97.5t-90 -258.5z" />
<glyph unicode="&#xd5;" d="M68 717q0 159 58.5 298t158 237t236.5 154t290 56t290 -56t237 -154t159 -237t59 -298q0 -212 -100 -383.5t-270.5 -267t-374.5 -95.5t-374 95.5t-269.5 267t-99.5 383.5zM289 1550q0 151 99 249.5t251 98.5q56 0 108.5 -20t85 -44.5t70 -44.5t68.5 -20q40 0 64 24t24 62 h301q0 -153 -98.5 -251.5t-251.5 -98.5q-54 0 -105.5 20t-84.5 44.5t-72 44.5t-70 20q-38 0 -62 -23.5t-24 -60.5h-303zM477 717q0 -160 90 -258.5t244 -98.5q155 0 244.5 98t89.5 259q0 162 -89.5 259t-244.5 97q-154 0 -244 -97.5t-90 -258.5z" />
<glyph unicode="&#xd6;" d="M68 717q0 159 58.5 298t158 237t236.5 154t290 56t290 -56t237 -154t159 -237t59 -298q0 -212 -100 -383.5t-270.5 -267t-374.5 -95.5t-374 95.5t-269.5 267t-99.5 383.5zM360 1739q0 69 49 117.5t119 48.5q69 0 116.5 -48.5t47.5 -117.5t-47.5 -116.5t-116.5 -47.5 q-71 0 -119.5 47.5t-48.5 116.5zM477 717q0 -160 90 -258.5t244 -98.5q155 0 244.5 98t89.5 259q0 162 -89.5 259t-244.5 97q-154 0 -244 -97.5t-90 -258.5zM932 1739q0 69 48 117.5t118 48.5q69 0 117.5 -48.5t48.5 -117.5t-48.5 -116.5t-117.5 -47.5q-70 0 -118 47.5 t-48 116.5z" />
<glyph unicode="&#xd7;" horiz-adv-x="1429" d="M233 926l263 262l219 -215l221 221l262 -262l-221 -221l219 -222l-262 -264l-219 221l-217 -215l-262 263l217 217z" />
<glyph unicode="&#xd8;" d="M68 717q0 159 58.5 298t158 237t236.5 154t290 56q163 0 311 -63l74 96l279 -209l-78 -100q159 -199 159 -469q0 -212 -100 -383.5t-270.5 -267t-374.5 -95.5q-161 0 -299 60l-78 -101l-278 211l75 99q-163 203 -163 477zM477 717q0 -68 19 -133l372 485q-36 4 -57 4 q-154 0 -244 -97.5t-90 -258.5zM766 362q14 -2 45 -2q155 0 244.5 98t89.5 259q0 65 -15 121z" />
<glyph unicode="&#xd9;" horiz-adv-x="1546" d="M127 649v785h393v-775q0 -167 64 -244t190 -77q125 0 188.5 77.5t63.5 243.5v775h393v-785q0 -321 -177 -499.5t-468 -178.5q-144 0 -263 45t-204.5 129.5t-132.5 213.5t-47 290zM356 1694l133 262l504 -268l-112 -205z" />
<glyph unicode="&#xda;" horiz-adv-x="1546" d="M127 649v785h393v-775q0 -167 64 -244t190 -77q125 0 188.5 77.5t63.5 243.5v775h393v-785q0 -321 -177 -499.5t-468 -178.5q-144 0 -263 45t-204.5 129.5t-132.5 213.5t-47 290zM502 1688l504 268l133 -262l-525 -211z" />
<glyph unicode="&#xdb;" horiz-adv-x="1546" d="M127 649v785h393v-775q0 -167 64 -244t190 -77q125 0 188.5 77.5t63.5 243.5v775h393v-785q0 -321 -177 -499.5t-468 -178.5q-144 0 -263 45t-204.5 129.5t-132.5 213.5t-47 290zM344 1667l420 358l420 -358l-187 -188l-233 190l-232 -190z" />
<glyph unicode="&#xdc;" horiz-adv-x="1546" d="M127 649v785h393v-775q0 -167 64 -244t190 -77q125 0 188.5 77.5t63.5 243.5v775h393v-785q0 -321 -177 -499.5t-468 -178.5q-144 0 -263 45t-204.5 129.5t-132.5 213.5t-47 290zM313 1739q0 69 49 117.5t119 48.5q69 0 116.5 -48.5t47.5 -117.5t-47.5 -116.5 t-116.5 -47.5q-71 0 -119.5 47.5t-48.5 116.5zM885 1739q0 69 48 117.5t118 48.5q69 0 117.5 -48.5t48.5 -117.5t-48.5 -116.5t-117.5 -47.5q-70 0 -118 47.5t-48 116.5z" />
<glyph unicode="&#xdd;" horiz-adv-x="1519" d="M16 1434h441l231 -359q66 -102 70 -102h2q6 0 69 102l234 359h438l-547 -818v-616h-391v616zM485 1688l504 268l133 -262l-524 -211z" />
<glyph unicode="&#xde;" horiz-adv-x="1355" d="M152 0v1434h393v-217h178q259 0 419.5 -141t160.5 -361q0 -219 -160.5 -360.5t-419.5 -141.5h-178v-213h-393zM545 582h186q79 0 120.5 36.5t41.5 96.5q0 61 -41.5 98t-120.5 37h-186v-268z" />
<glyph unicode="&#xdf;" horiz-adv-x="1734" d="M152 0v1434h1380l-191 -365q-23 -43 -48 -95t-38.5 -83.5t-13.5 -32.5l2 -2h6q105 0 201.5 -57t156.5 -153.5t60 -205.5q0 -199 -141 -334t-379 -135q-163 0 -294 75.5t-208 199.5l373 100q32 -24 55 -33.5t55 -9.5q78 0 111 39.5t33 101.5q0 56 -41.5 93.5t-114.5 37.5 h-256v281l31 78q59 129 59 135l-2 2l-8 -1q-8 0 -21 -0.5t-29 -1t-35.5 -1t-37.5 -0.5h-272v-1067h-393z" />
<glyph unicode="&#xe0;" horiz-adv-x="1472" d="M-10 0l559 1434h375l559 -1434h-424l-64 184h-518l-63 -184h-424zM317 1694l134 262l503 -268l-112 -205zM594 526h285l-72 209q-13 36 -30.5 92t-28 92.5t-11.5 36.5h-2q-1 0 -11.5 -36.5t-27.5 -92.5t-30 -92z" />
<glyph unicode="&#xe1;" horiz-adv-x="1472" d="M-10 0l559 1434h375l559 -1434h-424l-64 184h-518l-63 -184h-424zM463 1688l504 268l133 -262l-525 -211zM594 526h285l-72 209q-13 36 -30.5 92t-28 92.5t-11.5 36.5h-2q-1 0 -11.5 -36.5t-27.5 -92.5t-30 -92z" />
<glyph unicode="&#xe2;" horiz-adv-x="1472" d="M-10 0l559 1434h375l559 -1434h-424l-64 184h-518l-63 -184h-424zM305 1667l420 358l420 -358l-187 -188l-233 190l-231 -190zM594 526h285l-72 209q-13 36 -30.5 92t-28 92.5t-11.5 36.5h-2q-1 0 -11.5 -36.5t-27.5 -92.5t-30 -92z" />
<glyph unicode="&#xe3;" horiz-adv-x="1472" d="M-10 0l559 1434h375l559 -1434h-424l-64 184h-518l-63 -184h-424zM203 1550q0 151 99 249.5t251 98.5q56 0 108.5 -20t85 -44.5t70 -44.5t68.5 -20q40 0 64 24t24 62h301q0 -153 -98.5 -251.5t-251.5 -98.5q-54 0 -105.5 20t-84.5 44.5t-72 44.5t-70 20q-38 0 -62 -23.5 t-24 -60.5h-303zM594 526h285l-72 209q-13 36 -30.5 92t-28 92.5t-11.5 36.5h-2q-1 0 -11.5 -36.5t-27.5 -92.5t-30 -92z" />
<glyph unicode="&#xe4;" horiz-adv-x="1472" d="M-10 0l559 1434h375l559 -1434h-424l-64 184h-518l-63 -184h-424zM274 1739q0 69 49 117.5t119 48.5q69 0 116.5 -48.5t47.5 -117.5t-47.5 -116.5t-116.5 -47.5q-71 0 -119.5 47.5t-48.5 116.5zM594 526h285l-72 209q-13 36 -30.5 92t-28 92.5t-11.5 36.5h-2 q-1 0 -11.5 -36.5t-27.5 -92.5t-30 -92zM846 1739q0 69 48 117.5t118 48.5q69 0 117.5 -48.5t48.5 -117.5t-48.5 -116.5t-117.5 -47.5q-70 0 -118 47.5t-48 116.5z" />
<glyph unicode="&#xe5;" horiz-adv-x="1472" d="M-10 0l559 1434h4q-69 45 -110.5 118.5t-41.5 157.5q0 135 99.5 232.5t234.5 97.5q136 0 233 -97.5t97 -232.5q0 -85 -40.5 -158t-109.5 -118h9l559 -1434h-424l-64 184h-518l-63 -184h-424zM594 526h285l-72 209q-13 36 -30.5 92t-28 92.5t-11.5 36.5h-2 q-1 0 -11.5 -36.5t-27.5 -92.5t-30 -92zM631 1712q0 -41 31.5 -73.5t72.5 -32.5q46 0 78.5 32t32.5 74q0 46 -32 78.5t-79 32.5q-42 0 -73 -33t-31 -78z" />
<glyph unicode="&#xe6;" horiz-adv-x="2115" d="M-10 0l557 1434h1409v-367h-674v-178h522v-344h-522v-178h686v-367h-1065v184h-426l-61 -184h-426zM592 526h309v541h-129q-1 0 -17.5 -50t-43.5 -132t-45 -133z" />
<glyph unicode="&#xe7;" horiz-adv-x="1540" d="M68 717q0 159 58.5 298t158 237t236.5 154t290 56q209 0 381.5 -104t269.5 -279l-401 -104q-42 44 -112.5 71t-137.5 27q-156 0 -245 -99t-89 -257q0 -163 92 -257.5t242 -94.5q84 0 161.5 37.5t114.5 95.5l400 -103q-80 -172 -235.5 -284.5t-350.5 -135.5l-35 -94 q90 2 158 -60t68 -163q0 -124 -72 -181t-182 -57h-283l78 201h205q45 0 45 33q0 32 -45 35h-244l100 291q-133 20 -248 83t-198.5 158t-131.5 223.5t-48 272.5z" />
<glyph unicode="&#xe8;" horiz-adv-x="1378" d="M152 0v1434h1065v-367h-672v-178h522v-344h-522v-178h684v-367h-1077zM305 1694l133 262l504 -268l-113 -205z" />
<glyph unicode="&#xe9;" horiz-adv-x="1378" d="M152 0v1434h1065v-367h-672v-178h522v-344h-522v-178h684v-367h-1077zM451 1688l503 268l133 -262l-524 -211z" />
<glyph unicode="&#xea;" horiz-adv-x="1378" d="M152 0v1434h1065v-367h-672v-178h522v-344h-522v-178h684v-367h-1077zM293 1667l420 358l420 -358l-187 -188l-233 190l-232 -190z" />
<glyph unicode="&#xeb;" horiz-adv-x="1378" d="M152 0v1434h1065v-367h-672v-178h522v-344h-522v-178h684v-367h-1077zM262 1739q0 69 49 117.5t119 48.5q69 0 116.5 -48.5t47.5 -117.5t-47.5 -116.5t-116.5 -47.5q-71 0 -119.5 47.5t-48.5 116.5zM834 1739q0 69 47.5 117.5t117.5 48.5q69 0 117.5 -48.5t48.5 -117.5 t-48.5 -116.5t-117.5 -47.5q-70 0 -117.5 47.5t-47.5 116.5z" />
<glyph unicode="&#xec;" horiz-adv-x="694" d="M-70 1694l133 262l504 -268l-112 -205zM152 0v1434h393v-1434h-393z" />
<glyph unicode="&#xed;" horiz-adv-x="694" d="M76 1688l504 268l133 -262l-525 -211zM152 0v1434h393v-1434h-393z" />
<glyph unicode="&#xee;" horiz-adv-x="694" d="M-82 1667l420 358l420 -358l-187 -188l-233 190l-232 -190zM152 0v1434h393v-1434h-393z" />
<glyph unicode="&#xef;" horiz-adv-x="694" d="M-113 1739q0 69 49 117.5t119 48.5q69 0 116.5 -48.5t47.5 -117.5t-47.5 -116.5t-116.5 -47.5q-71 0 -119.5 47.5t-48.5 116.5zM152 0v1434h393v-1434h-393zM459 1739q0 69 48 117.5t118 48.5q69 0 117.5 -48.5t48.5 -117.5t-48.5 -116.5t-117.5 -47.5q-70 0 -118 47.5 t-48 116.5z" />
<glyph unicode="&#xf0;" horiz-adv-x="1626" d="M68 547v352h118v535h633q204 0 373 -90t269 -256.5t100 -376.5q0 -158 -58.5 -292.5t-159.5 -225.5t-237.5 -142t-290.5 -51h-629v547h-118zM580 367h235q141 0 238.5 93t97.5 251t-97.5 257t-234.5 99h-239v-168h178v-352h-178v-180z" />
<glyph unicode="&#xf1;" horiz-adv-x="1619" d="M152 0v1434h368l213 -285q38 -50 124 -169t151.5 -210.5t66.5 -91.5h2q1 29 0.5 80.5t-1.5 202t-1 264.5v209h393v-1434h-370l-197 272q-56 77 -147 203.5t-149.5 208.5t-59.5 82h-2q-1 -30 -0.5 -72.5t1.5 -199t1 -297.5v-197h-393zM276 1550q0 151 99.5 249.5 t251.5 98.5q56 0 108 -20t84.5 -44.5t70 -44.5t68.5 -20q40 0 64.5 24t24.5 62h301q0 -153 -99 -251.5t-252 -98.5q-54 0 -105.5 20t-84 44.5t-71.5 44.5t-70 20q-38 0 -62 -23.5t-24 -60.5h-304z" />
<glyph unicode="&#xf2;" d="M68 717q0 159 58.5 298t158 237t236.5 154t290 56t290 -56t237 -154t159 -237t59 -298q0 -212 -100 -383.5t-270.5 -267t-374.5 -95.5t-374 95.5t-269.5 267t-99.5 383.5zM399 1694l133 262l504 -268l-112 -205zM477 717q0 -160 90 -258.5t244 -98.5q155 0 244.5 98 t89.5 259q0 162 -89.5 259t-244.5 97q-154 0 -244 -97.5t-90 -258.5z" />
<glyph unicode="&#xf3;" d="M68 717q0 159 58.5 298t158 237t236.5 154t290 56t290 -56t237 -154t159 -237t59 -298q0 -212 -100 -383.5t-270.5 -267t-374.5 -95.5t-374 95.5t-269.5 267t-99.5 383.5zM477 717q0 -160 90 -258.5t244 -98.5q155 0 244.5 98t89.5 259q0 162 -89.5 259t-244.5 97 q-154 0 -244 -97.5t-90 -258.5zM545 1688l504 268l133 -262l-525 -211z" />
<glyph unicode="&#xf4;" d="M68 717q0 159 58.5 298t158 237t236.5 154t290 56t290 -56t237 -154t159 -237t59 -298q0 -212 -100 -383.5t-270.5 -267t-374.5 -95.5t-374 95.5t-269.5 267t-99.5 383.5zM387 1667l420 358l420 -358l-187 -188l-233 190l-232 -190zM477 717q0 -160 90 -258.5t244 -98.5 q155 0 244.5 98t89.5 259q0 162 -89.5 259t-244.5 97q-154 0 -244 -97.5t-90 -258.5z" />
<glyph unicode="&#xf5;" d="M68 717q0 159 58.5 298t158 237t236.5 154t290 56t290 -56t237 -154t159 -237t59 -298q0 -212 -100 -383.5t-270.5 -267t-374.5 -95.5t-374 95.5t-269.5 267t-99.5 383.5zM285 1550q0 151 99 249.5t251 98.5q56 0 108.5 -20t85 -44.5t70 -44.5t68.5 -20q40 0 64 24t24 62 h301q0 -153 -98.5 -251.5t-251.5 -98.5q-54 0 -105.5 20t-84.5 44.5t-72 44.5t-70 20q-38 0 -62 -23.5t-24 -60.5h-303zM477 717q0 -160 90 -258.5t244 -98.5q155 0 244.5 98t89.5 259q0 162 -89.5 259t-244.5 97q-154 0 -244 -97.5t-90 -258.5z" />
<glyph unicode="&#xf6;" d="M68 717q0 159 58.5 298t158 237t236.5 154t290 56t290 -56t237 -154t159 -237t59 -298q0 -212 -100 -383.5t-270.5 -267t-374.5 -95.5t-374 95.5t-269.5 267t-99.5 383.5zM356 1739q0 69 49 117.5t119 48.5q69 0 116.5 -48.5t47.5 -117.5t-47.5 -116.5t-116.5 -47.5 q-71 0 -119.5 47.5t-48.5 116.5zM477 717q0 -160 90 -258.5t244 -98.5q155 0 244.5 98t89.5 259q0 162 -89.5 259t-244.5 97q-154 0 -244 -97.5t-90 -258.5zM928 1739q0 69 48 117.5t118 48.5q69 0 117.5 -48.5t48.5 -117.5t-48.5 -116.5t-117.5 -47.5q-70 0 -118 47.5 t-48 116.5z" />
<glyph unicode="&#xf7;" horiz-adv-x="1429" d="M256 565v320h924v-320h-924zM526 264q0 72 52.5 123t126.5 51q72 0 124 -51t52 -123q0 -75 -51.5 -127.5t-124.5 -52.5q-74 0 -126.5 52.5t-52.5 127.5zM526 1188q0 72 52.5 123t126.5 51q72 0 124 -51t52 -123q0 -75 -51.5 -127.5t-124.5 -52.5q-74 0 -126.5 52.5 t-52.5 127.5z" />
<glyph unicode="&#xf8;" d="M68 717q0 159 58.5 298t158 237t236.5 154t290 56q163 0 311 -63l74 96l279 -209l-78 -100q159 -199 159 -469q0 -212 -100 -383.5t-270.5 -267t-374.5 -95.5q-161 0 -299 60l-78 -101l-278 211l75 99q-163 203 -163 477zM477 717q0 -68 19 -133l372 485q-36 4 -57 4 q-154 0 -244 -97.5t-90 -258.5zM766 362q14 -2 45 -2q155 0 244.5 98t89.5 259q0 65 -15 121z" />
<glyph unicode="&#xf9;" horiz-adv-x="1546" d="M127 649v785h393v-775q0 -167 64 -244t190 -77q125 0 188.5 77.5t63.5 243.5v775h393v-785q0 -321 -177 -499.5t-468 -178.5q-144 0 -263 45t-204.5 129.5t-132.5 213.5t-47 290zM356 1694l133 262l504 -268l-112 -205z" />
<glyph unicode="&#xfa;" horiz-adv-x="1546" d="M127 649v785h393v-775q0 -167 64 -244t190 -77q125 0 188.5 77.5t63.5 243.5v775h393v-785q0 -321 -177 -499.5t-468 -178.5q-144 0 -263 45t-204.5 129.5t-132.5 213.5t-47 290zM502 1688l504 268l133 -262l-525 -211z" />
<glyph unicode="&#xfb;" horiz-adv-x="1546" d="M127 649v785h393v-775q0 -167 64 -244t190 -77q125 0 188.5 77.5t63.5 243.5v775h393v-785q0 -321 -177 -499.5t-468 -178.5q-144 0 -263 45t-204.5 129.5t-132.5 213.5t-47 290zM344 1667l420 358l420 -358l-187 -188l-233 190l-232 -190z" />
<glyph unicode="&#xfc;" horiz-adv-x="1546" d="M127 649v785h393v-775q0 -167 64 -244t190 -77q125 0 188.5 77.5t63.5 243.5v775h393v-785q0 -321 -177 -499.5t-468 -178.5q-144 0 -263 45t-204.5 129.5t-132.5 213.5t-47 290zM313 1739q0 69 49 117.5t119 48.5q69 0 116.5 -48.5t47.5 -117.5t-47.5 -116.5 t-116.5 -47.5q-71 0 -119.5 47.5t-48.5 116.5zM885 1739q0 69 48 117.5t118 48.5q69 0 117.5 -48.5t48.5 -117.5t-48.5 -116.5t-117.5 -47.5q-70 0 -118 47.5t-48 116.5z" />
<glyph unicode="&#xfd;" horiz-adv-x="1519" d="M16 1434h441l231 -359q66 -102 70 -102h2q6 0 69 102l234 359h438l-547 -818v-616h-391v616zM487 1688l504 268l133 -262l-524 -211z" />
<glyph unicode="&#xfe;" horiz-adv-x="1355" d="M152 0v1434h393v-217h178q259 0 419.5 -141t160.5 -361q0 -219 -160.5 -360.5t-419.5 -141.5h-178v-213h-393zM545 582h186q79 0 120.5 36.5t41.5 96.5q0 61 -41.5 98t-120.5 37h-186v-268z" />
<glyph unicode="&#xff;" horiz-adv-x="1519" d="M16 1434h441l231 -359q66 -102 70 -102h2q6 0 69 102l234 359h438l-547 -818v-616h-391v616zM299 1739q0 69 49 117.5t119 48.5q69 0 116.5 -48.5t47.5 -117.5t-47.5 -116.5t-116.5 -47.5q-71 0 -119.5 47.5t-48.5 116.5zM870 1739q0 69 48 117.5t118 48.5 q69 0 117.5 -48.5t48.5 -117.5t-48.5 -116.5t-117.5 -47.5q-70 0 -118 47.5t-48 116.5z" />
<glyph unicode="&#x152;" horiz-adv-x="2220" d="M68 717q0 207 96.5 373.5t261.5 259t365 92.5q140 0 215 -8h1054v-367h-674v-178h523v-344h-523v-178h687v-367h-1067q-68 -8 -215 -8q-200 0 -365 92.5t-261.5 259t-96.5 373.5zM477 717q0 -153 84 -244.5t230 -91.5q131 0 215 37v598q-84 37 -215 37q-146 0 -230 -91 t-84 -245z" />
<glyph unicode="&#x153;" horiz-adv-x="2220" d="M68 717q0 207 96.5 373.5t261.5 259t365 92.5q140 0 215 -8h1054v-367h-674v-178h523v-344h-523v-178h687v-367h-1067q-68 -8 -215 -8q-200 0 -365 92.5t-261.5 259t-96.5 373.5zM477 717q0 -153 84 -244.5t230 -91.5q131 0 215 37v598q-84 37 -215 37q-146 0 -230 -91 t-84 -245z" />
<glyph unicode="&#x178;" horiz-adv-x="1519" d="M16 1434h441l231 -359q66 -102 70 -102h2q6 0 69 102l234 359h438l-547 -818v-616h-391v616zM297 1739q0 69 49 117.5t119 48.5q69 0 116.5 -48.5t47.5 -117.5t-47.5 -116.5t-116.5 -47.5q-71 0 -119.5 47.5t-48.5 116.5zM868 1739q0 69 48 117.5t118 48.5 q69 0 117.5 -48.5t48.5 -117.5t-48.5 -116.5t-117.5 -47.5q-70 0 -118 47.5t-48 116.5z" />
<glyph unicode="&#x2c6;" horiz-adv-x="770" d="M-76 1667l422 358l418 -358l-186 -188l-232 190l-233 -190z" />
<glyph unicode="&#x2dc;" horiz-adv-x="1101" d="M-25 1550q0 151 99 249.5t252 98.5q56 0 108 -20t84.5 -44.5t70 -44.5t68.5 -20q40 0 64 24t24 62h302q0 -153 -98.5 -251.5t-252.5 -98.5q-54 0 -105.5 20t-84 44.5t-71.5 44.5t-70 20q-38 0 -62 -23.5t-24 -60.5h-304z" />
<glyph unicode="&#x2000;" horiz-adv-x="1020" />
<glyph unicode="&#x2001;" horiz-adv-x="2040" />
<glyph unicode="&#x2002;" horiz-adv-x="1020" />
<glyph unicode="&#x2003;" horiz-adv-x="2040" />
<glyph unicode="&#x2004;" horiz-adv-x="680" />
<glyph unicode="&#x2005;" horiz-adv-x="510" />
<glyph unicode="&#x2006;" horiz-adv-x="340" />
<glyph unicode="&#x2007;" horiz-adv-x="340" />
<glyph unicode="&#x2008;" horiz-adv-x="255" />
<glyph unicode="&#x2009;" horiz-adv-x="408" />
<glyph unicode="&#x200a;" horiz-adv-x="113" />
<glyph unicode="&#x2010;" horiz-adv-x="1224" d="M152 565v320h921v-320h-921z" />
<glyph unicode="&#x2011;" horiz-adv-x="1224" d="M152 565v320h921v-320h-921z" />
<glyph unicode="&#x2012;" horiz-adv-x="1224" d="M152 565v320h921v-320h-921z" />
<glyph unicode="&#x2013;" horiz-adv-x="1193" d="M152 543v366h892v-366h-892z" />
<glyph unicode="&#x2014;" horiz-adv-x="2129" d="M152 543v366h1828v-366h-1828z" />
<glyph unicode="&#x2018;" horiz-adv-x="696" d="M152 1051q0 96 72 209t182 198h139q-55 -31 -111.5 -119.5t-56.5 -136.5l-33 -8l33 -4q49 -8 88 -51t39 -109q0 -72 -51.5 -124t-124.5 -52q-75 0 -125.5 54.5t-50.5 142.5z" />
<glyph unicode="&#x2019;" horiz-adv-x="696" d="M152 854q54 31 109.5 120t55.5 136l35 8l-35 4q-49 8 -88 51t-39 109q0 72 53 124t126 52q74 0 125 -54.5t51 -141.5q0 -96 -72.5 -209t-181.5 -199h-139z" />
<glyph unicode="&#x201a;" horiz-adv-x="696" d="M152 -270q54 31 109.5 120t55.5 136l35 8l-35 4q-49 8 -88 51t-39 109q0 72 53 124t126 52q74 0 125 -55t51 -142q0 -95 -72.5 -208t-181.5 -199h-139z" />
<glyph unicode="&#x201c;" horiz-adv-x="1191" d="M152 1051q0 96 72 209t182 198h139q-55 -31 -111.5 -119.5t-56.5 -136.5l-33 -8l33 -4q49 -8 88 -51t39 -109q0 -72 -51.5 -124t-124.5 -52q-75 0 -125.5 54.5t-50.5 142.5zM649 1051q0 96 72 209t182 198h139q-55 -31 -111.5 -119.5t-56.5 -136.5l-32 -8l32 -4 q49 -8 88 -51t39 -109q0 -72 -51.5 -124t-126.5 -52q-74 0 -124 55t-50 142z" />
<glyph unicode="&#x201d;" horiz-adv-x="1191" d="M152 854q54 31 109.5 120t55.5 136l35 8l-35 4q-49 8 -88 51t-39 109q0 72 53 124t126 52q74 0 125 -54.5t51 -141.5q0 -96 -72.5 -209t-181.5 -199h-139zM649 854q54 31 110 120t56 136l33 8l-33 4q-49 8 -88 51t-39 109q0 72 52 124t126 52t125 -54.5t51 -141.5 q0 -96 -72.5 -209t-181.5 -199h-139z" />
<glyph unicode="&#x201e;" horiz-adv-x="1200" d="M152 -270q54 31 109.5 120t55.5 136l35 8l-35 4q-49 8 -88 51t-39 109q0 71 53 122.5t126 51.5q74 0 125 -54.5t51 -140.5q0 -95 -72.5 -208t-181.5 -199h-139zM655 -270q55 31 111.5 119.5t56.5 136.5l33 8l-33 4q-49 8 -88 51t-39 109q0 71 52 122.5t126 51.5 t124.5 -54.5t50.5 -140.5q0 -96 -72 -209t-182 -198h-140z" />
<glyph unicode="&#x2022;" horiz-adv-x="864" d="M152 727q0 116 82 197.5t200 81.5q114 0 196.5 -82t82.5 -197q0 -118 -82 -200.5t-197 -82.5q-118 0 -200 82t-82 201z" />
<glyph unicode="&#x2026;" horiz-adv-x="1624" d="M123 121q0 60 43 102.5t104 42.5q60 0 103 -42.5t43 -102.5q0 -61 -43 -104.5t-103 -43.5q-61 0 -104 43t-43 105zM655 121q0 60 43.5 102.5t104.5 42.5q60 0 102.5 -42.5t42.5 -102.5q0 -61 -42.5 -104.5t-102.5 -43.5q-61 0 -104.5 43.5t-43.5 104.5zM1208 121 q0 60 43.5 102.5t104.5 42.5q60 0 102.5 -42.5t42.5 -102.5q0 -61 -42.5 -104.5t-102.5 -43.5q-62 0 -105 43.5t-43 104.5z" />
<glyph unicode="&#x202f;" horiz-adv-x="408" />
<glyph unicode="&#x2039;" horiz-adv-x="997" d="M152 721l483 479l209 -211l-283 -268l285 -268l-213 -213z" />
<glyph unicode="&#x203a;" horiz-adv-x="997" d="M152 453l284 268l-282 268l208 211l484 -479l-481 -481z" />
<glyph unicode="&#x205f;" horiz-adv-x="510" />
<glyph unicode="&#x20ac;" horiz-adv-x="1642" d="M68 440v250h110v53h-108v250h157q80 211 267.5 338t423.5 127q208 0 380 -103.5t267 -277.5l-398 -96q-43 45 -108 70.5t-139 25.5q-132 0 -232 -84h252v-250h-379v-53h375v-250h-244q96 -80 228 -80q86 0 160 36.5t116 97.5l393 -97q-89 -192 -269 -307t-402 -115 q-236 0 -423.5 127t-267.5 338h-159z" />
<glyph unicode="&#x2122;" horiz-adv-x="1615" d="M14 1212v222h633v-222h-203v-444h-229v444h-201zM735 768v666h211l92 -129q22 -33 40 -67t25 -52l7 -17h2l8 17q7 18 25.5 52t40.5 67l90 129h213v-666h-221v168q0 42 2 79t3.5 50.5t0.5 13.5h-2q-4 0 -86 -116l-29 -39h-90l-29 39q-79 116 -86 116h-2q-1 0 0.5 -13.5 t3.5 -50.5t2 -79v-168h-221z" />
</font>
</defs>
</svg>
